<svg width="1768" height="1464" viewBox="0 0 1768 1464" fill="none" xmlns="http://www.w3.org/2000/svg">
<circle cx="902" cy="730" r="653" stroke="#C4C4C4" stroke-width="4"/>
<g filter="url(#filter0_d_198_2)">
<rect x="683" y="21" width="413" height="271" rx="48" fill="white"/>
</g>
<g filter="url(#filter1_d_198_2)">
<rect x="1334" y="326" width="413" height="271" rx="48" fill="white"/>
</g>
<g filter="url(#filter2_d_198_2)">
<rect x="31" y="326" width="413" height="271" rx="48" fill="white"/>
</g>
<g filter="url(#filter3_d_198_2)">
<rect x="1324" y="830" width="413" height="271" rx="48" fill="white"/>
</g>
<g filter="url(#filter4_d_198_2)">
<rect x="21" y="830" width="413" height="271" rx="48" fill="white"/>
</g>
<g filter="url(#filter5_d_198_2)">
<rect x="683" y="1172" width="413" height="271" rx="48" fill="white"/>
</g>
<path d="M769.489 186V163.6H773.585V182.8H783.505V186H769.489ZM789.226 167.664C788.479 167.664 787.86 167.44 787.37 166.992C786.9 166.544 786.666 165.979 786.666 165.296C786.666 164.613 786.9 164.059 787.37 163.632C787.86 163.184 788.479 162.96 789.226 162.96C789.972 162.96 790.58 163.184 791.05 163.632C791.54 164.059 791.786 164.613 791.786 165.296C791.786 165.979 791.54 166.544 791.05 166.992C790.58 167.44 789.972 167.664 789.226 167.664ZM787.178 186V170.128H791.274V186H787.178ZM795.549 186V170.128H799.165L799.485 172.816C799.975 171.877 800.679 171.131 801.597 170.576C802.535 170.021 803.634 169.744 804.893 169.744C806.855 169.744 808.381 170.363 809.469 171.6C810.557 172.837 811.101 174.651 811.101 177.04V186H807.005V177.424C807.005 176.059 806.727 175.013 806.173 174.288C805.618 173.563 804.754 173.2 803.581 173.2C802.429 173.2 801.479 173.605 800.733 174.416C800.007 175.227 799.645 176.357 799.645 177.808V186H795.549ZM822.73 186.384C821.13 186.384 819.711 186.043 818.474 185.36C817.236 184.677 816.266 183.717 815.562 182.48C814.858 181.243 814.506 179.813 814.506 178.192C814.506 176.549 814.847 175.088 815.53 173.808C816.234 172.528 817.194 171.536 818.41 170.832C819.647 170.107 821.098 169.744 822.762 169.744C824.319 169.744 825.695 170.085 826.89 170.768C828.084 171.451 829.012 172.389 829.674 173.584C830.356 174.757 830.698 176.069 830.698 177.52C830.698 177.755 830.687 178 830.666 178.256C830.666 178.512 830.655 178.779 830.634 179.056H818.57C818.655 180.293 819.082 181.264 819.85 181.968C820.639 182.672 821.588 183.024 822.698 183.024C823.53 183.024 824.223 182.843 824.778 182.48C825.354 182.096 825.78 181.605 826.058 181.008H830.218C829.919 182.011 829.418 182.928 828.714 183.76C828.031 184.571 827.178 185.211 826.154 185.68C825.151 186.149 824.01 186.384 822.73 186.384ZM822.762 173.072C821.759 173.072 820.874 173.36 820.106 173.936C819.338 174.491 818.847 175.344 818.634 176.496H826.538C826.474 175.451 826.09 174.619 825.386 174C824.682 173.381 823.807 173.072 822.762 173.072ZM847.72 186.384C845.736 186.384 844.2 185.765 843.112 184.528C842.045 183.291 841.512 181.477 841.512 179.088V170.128H845.576V178.704C845.576 180.069 845.853 181.115 846.408 181.84C846.962 182.565 847.837 182.928 849.032 182.928C850.162 182.928 851.09 182.523 851.816 181.712C852.562 180.901 852.936 179.771 852.936 178.32V170.128H857.032V186H853.416L853.096 183.312C852.605 184.251 851.89 184.997 850.952 185.552C850.034 186.107 848.957 186.384 847.72 186.384ZM861.236 193.04V170.128H864.884L865.332 172.4C865.844 171.696 866.516 171.077 867.348 170.544C868.202 170.011 869.3 169.744 870.644 169.744C872.138 169.744 873.471 170.107 874.644 170.832C875.818 171.557 876.746 172.549 877.428 173.808C878.111 175.067 878.452 176.496 878.452 178.096C878.452 179.696 878.111 181.125 877.428 182.384C876.746 183.621 875.818 184.603 874.644 185.328C873.471 186.032 872.138 186.384 870.644 186.384C869.45 186.384 868.404 186.16 867.508 185.712C866.612 185.264 865.887 184.635 865.332 183.824V193.04H861.236ZM869.78 182.8C871.082 182.8 872.159 182.363 873.012 181.488C873.866 180.613 874.292 179.483 874.292 178.096C874.292 176.709 873.866 175.568 873.012 174.672C872.159 173.776 871.082 173.328 869.78 173.328C868.458 173.328 867.37 173.776 866.516 174.672C865.684 175.547 865.268 176.677 865.268 178.064C865.268 179.451 865.684 180.592 866.516 181.488C867.37 182.363 868.458 182.8 869.78 182.8ZM889.832 186V163.6H898.12C899.912 163.6 901.395 163.899 902.568 164.496C903.742 165.093 904.616 165.915 905.192 166.96C905.768 168.005 906.056 169.179 906.056 170.48C906.056 171.717 905.779 172.859 905.224 173.904C904.67 174.928 903.806 175.76 902.632 176.4C901.459 177.019 899.955 177.328 898.12 177.328H893.928V186H889.832ZM893.928 174H897.864C899.294 174 900.318 173.691 900.936 173.072C901.576 172.432 901.896 171.568 901.896 170.48C901.896 169.371 901.576 168.507 900.936 167.888C900.318 167.248 899.294 166.928 897.864 166.928H893.928V174ZM909.174 186V170.128H912.822L913.206 173.104C913.782 172.08 914.56 171.269 915.542 170.672C916.544 170.053 917.718 169.744 919.062 169.744V174.064H917.91C917.014 174.064 916.214 174.203 915.51 174.48C914.806 174.757 914.251 175.237 913.846 175.92C913.462 176.603 913.27 177.552 913.27 178.768V186H909.174ZM929.196 186.384C927.66 186.384 926.273 186.032 925.036 185.328C923.82 184.624 922.849 183.653 922.124 182.416C921.42 181.157 921.068 179.707 921.068 178.064C921.068 176.421 921.431 174.981 922.156 173.744C922.881 172.485 923.852 171.504 925.068 170.8C926.305 170.096 927.692 169.744 929.228 169.744C930.743 169.744 932.108 170.096 933.324 170.8C934.561 171.504 935.532 172.485 936.236 173.744C936.961 174.981 937.324 176.421 937.324 178.064C937.324 179.707 936.961 181.157 936.236 182.416C935.532 183.653 934.561 184.624 933.324 185.328C932.087 186.032 930.711 186.384 929.196 186.384ZM929.196 182.832C930.263 182.832 931.191 182.437 931.98 181.648C932.769 180.837 933.164 179.643 933.164 178.064C933.164 176.485 932.769 175.301 931.98 174.512C931.191 173.701 930.273 173.296 929.228 173.296C928.14 173.296 927.201 173.701 926.412 174.512C925.644 175.301 925.26 176.485 925.26 178.064C925.26 179.643 925.644 180.837 926.412 181.648C927.201 182.437 928.129 182.832 929.196 182.832ZM948.282 186.384C946.789 186.384 945.456 186.021 944.282 185.296C943.109 184.571 942.181 183.579 941.498 182.32C940.816 181.061 940.474 179.632 940.474 178.032C940.474 176.432 940.816 175.013 941.498 173.776C942.181 172.517 943.109 171.536 944.282 170.832C945.456 170.107 946.789 169.744 948.282 169.744C949.477 169.744 950.522 169.968 951.418 170.416C952.314 170.864 953.04 171.493 953.594 172.304V162.96H957.69V186H954.042L953.594 183.728C953.082 184.432 952.4 185.051 951.546 185.584C950.714 186.117 949.626 186.384 948.282 186.384ZM949.146 182.8C950.469 182.8 951.546 182.363 952.378 181.488C953.232 180.592 953.658 179.451 953.658 178.064C953.658 176.677 953.232 175.547 952.378 174.672C951.546 173.776 950.469 173.328 949.146 173.328C947.845 173.328 946.768 173.765 945.914 174.64C945.061 175.515 944.634 176.645 944.634 178.032C944.634 179.419 945.061 180.56 945.914 181.456C946.768 182.352 947.845 182.8 949.146 182.8ZM967.813 186.384C965.829 186.384 964.293 185.765 963.205 184.528C962.139 183.291 961.605 181.477 961.605 179.088V170.128H965.669V178.704C965.669 180.069 965.947 181.115 966.501 181.84C967.056 182.565 967.931 182.928 969.125 182.928C970.256 182.928 971.184 182.523 971.909 181.712C972.656 180.901 973.029 179.771 973.029 178.32V170.128H977.125V186H973.509L973.189 183.312C972.699 184.251 971.984 184.997 971.045 185.552C970.128 186.107 969.051 186.384 967.813 186.384ZM989.106 186.384C987.485 186.384 986.055 186.032 984.818 185.328C983.581 184.624 982.599 183.643 981.874 182.384C981.17 181.125 980.818 179.685 980.818 178.064C980.818 176.443 981.17 175.003 981.874 173.744C982.599 172.485 983.581 171.504 984.818 170.8C986.055 170.096 987.485 169.744 989.106 169.744C991.133 169.744 992.839 170.277 994.226 171.344C995.613 172.389 996.498 173.84 996.882 175.696H992.562C992.349 174.928 991.922 174.331 991.282 173.904C990.663 173.456 989.927 173.232 989.074 173.232C987.943 173.232 986.983 173.659 986.194 174.512C985.405 175.365 985.01 176.549 985.01 178.064C985.01 179.579 985.405 180.763 986.194 181.616C986.983 182.469 987.943 182.896 989.074 182.896C989.927 182.896 990.663 182.683 991.282 182.256C991.922 181.829 992.349 181.221 992.562 180.432H996.882C996.498 182.224 995.613 183.664 994.226 184.752C992.839 185.84 991.133 186.384 989.106 186.384ZM1007.37 186C1005.71 186 1004.37 185.595 1003.37 184.784C1002.37 183.973 1001.87 182.533 1001.87 180.464V173.552H999.147V170.128H1001.87L1002.35 165.872H1005.96V170.128H1010.25V173.552H1005.96V180.496C1005.96 181.264 1006.12 181.797 1006.44 182.096C1006.78 182.373 1007.36 182.512 1008.17 182.512H1010.15V186H1007.37ZM857.609 224.384C855.497 224.384 853.651 223.904 852.073 222.944C850.494 221.984 849.267 220.651 848.393 218.944C847.518 217.216 847.081 215.211 847.081 212.928C847.081 210.624 847.529 208.597 848.425 206.848C849.342 205.077 850.633 203.701 852.297 202.72C853.982 201.717 855.977 201.216 858.281 201.216C860.905 201.216 863.081 201.845 864.809 203.104C866.537 204.363 867.657 206.101 868.169 208.32H863.593C863.251 207.275 862.633 206.464 861.737 205.888C860.841 205.291 859.689 204.992 858.281 204.992C856.041 204.992 854.313 205.707 853.097 207.136C851.881 208.544 851.273 210.485 851.273 212.96C851.273 215.435 851.87 217.355 853.065 218.72C854.281 220.064 855.923 220.736 857.993 220.736C860.019 220.736 861.545 220.192 862.569 219.104C863.614 217.995 864.243 216.544 864.457 214.752H858.793V211.68H868.585V224H864.809L864.489 221.056C863.763 222.123 862.857 222.944 861.769 223.52C860.681 224.096 859.294 224.384 857.609 224.384ZM880.087 224.384C878.551 224.384 877.164 224.032 875.927 223.328C874.711 222.624 873.74 221.653 873.015 220.416C872.311 219.157 871.959 217.707 871.959 216.064C871.959 214.421 872.321 212.981 873.047 211.744C873.772 210.485 874.743 209.504 875.959 208.8C877.196 208.096 878.583 207.744 880.119 207.744C881.633 207.744 882.999 208.096 884.215 208.8C885.452 209.504 886.423 210.485 887.127 211.744C887.852 212.981 888.215 214.421 888.215 216.064C888.215 217.707 887.852 219.157 887.127 220.416C886.423 221.653 885.452 222.624 884.215 223.328C882.977 224.032 881.601 224.384 880.087 224.384ZM880.087 220.832C881.153 220.832 882.081 220.437 882.871 219.648C883.66 218.837 884.055 217.643 884.055 216.064C884.055 214.485 883.66 213.301 882.871 212.512C882.081 211.701 881.164 211.296 880.119 211.296C879.031 211.296 878.092 211.701 877.303 212.512C876.535 213.301 876.151 214.485 876.151 216.064C876.151 217.643 876.535 218.837 877.303 219.648C878.092 220.437 879.02 220.832 880.087 220.832ZM897.349 224.384C895.984 224.384 894.864 224.171 893.989 223.744C893.114 223.296 892.464 222.709 892.037 221.984C891.61 221.259 891.397 220.459 891.397 219.584C891.397 218.112 891.973 216.917 893.125 216C894.277 215.083 896.005 214.624 898.309 214.624H902.341V214.24C902.341 213.152 902.032 212.352 901.413 211.84C900.794 211.328 900.026 211.072 899.109 211.072C898.277 211.072 897.552 211.275 896.933 211.68C896.314 212.064 895.93 212.64 895.781 213.408H891.781C891.888 212.256 892.272 211.253 892.933 210.4C893.616 209.547 894.49 208.896 895.557 208.448C896.624 207.979 897.818 207.744 899.141 207.744C901.402 207.744 903.184 208.309 904.485 209.44C905.786 210.571 906.437 212.171 906.437 214.24V224H902.949L902.565 221.44C902.096 222.293 901.434 222.997 900.581 223.552C899.749 224.107 898.672 224.384 897.349 224.384ZM898.277 221.184C899.45 221.184 900.357 220.8 900.997 220.032C901.658 219.264 902.074 218.315 902.245 217.184H898.757C897.669 217.184 896.89 217.387 896.421 217.792C895.952 218.176 895.717 218.656 895.717 219.232C895.717 219.851 895.952 220.331 896.421 220.672C896.89 221.013 897.509 221.184 898.277 221.184ZM910.346 224V200.96H914.442V224H910.346ZM925.187 224.384C923.779 224.384 922.542 224.16 921.475 223.712C920.408 223.243 919.555 222.603 918.915 221.792C918.275 220.981 917.891 220.043 917.763 218.976H921.891C922.019 219.595 922.36 220.128 922.915 220.576C923.491 221.003 924.227 221.216 925.123 221.216C926.019 221.216 926.67 221.035 927.075 220.672C927.502 220.309 927.715 219.893 927.715 219.424C927.715 218.741 927.416 218.283 926.819 218.048C926.222 217.792 925.39 217.547 924.323 217.312C923.64 217.163 922.947 216.981 922.243 216.768C921.539 216.555 920.888 216.288 920.291 215.968C919.715 215.627 919.246 215.2 918.883 214.688C918.52 214.155 918.339 213.504 918.339 212.736C918.339 211.328 918.894 210.144 920.003 209.184C921.134 208.224 922.712 207.744 924.739 207.744C926.616 207.744 928.11 208.181 929.219 209.056C930.35 209.931 931.022 211.136 931.235 212.672H927.363C927.128 211.499 926.243 210.912 924.707 210.912C923.939 210.912 923.342 211.061 922.915 211.36C922.51 211.659 922.307 212.032 922.307 212.48C922.307 212.949 922.616 213.323 923.235 213.6C923.854 213.877 924.675 214.133 925.699 214.368C926.808 214.624 927.822 214.912 928.739 215.232C929.678 215.531 930.424 215.989 930.979 216.608C931.534 217.205 931.811 218.069 931.811 219.2C931.832 220.181 931.576 221.067 931.043 221.856C930.51 222.645 929.742 223.264 928.739 223.712C927.736 224.16 926.552 224.384 925.187 224.384Z" fill="black"/>
<path d="M1445.41 491.384C1443.15 491.384 1441.21 490.904 1439.59 489.944C1437.97 488.963 1436.72 487.608 1435.85 485.88C1434.97 484.131 1434.53 482.115 1434.53 479.832C1434.53 477.549 1434.97 475.533 1435.85 473.784C1436.72 472.035 1437.97 470.669 1439.59 469.688C1441.21 468.707 1443.15 468.216 1445.41 468.216C1448.1 468.216 1450.3 468.888 1452.01 470.232C1453.73 471.555 1454.81 473.421 1455.24 475.832H1450.73C1450.45 474.616 1449.85 473.667 1448.93 472.984C1448.04 472.28 1446.84 471.928 1445.35 471.928C1443.28 471.928 1441.66 472.632 1440.49 474.04C1439.31 475.448 1438.73 477.379 1438.73 479.832C1438.73 482.285 1439.31 484.216 1440.49 485.624C1441.66 487.011 1443.28 487.704 1445.35 487.704C1446.84 487.704 1448.04 487.384 1448.93 486.744C1449.85 486.083 1450.45 485.176 1450.73 484.024H1455.24C1454.81 486.328 1453.73 488.131 1452.01 489.432C1450.3 490.733 1448.1 491.384 1445.41 491.384ZM1466.38 491.384C1464.85 491.384 1463.46 491.032 1462.22 490.328C1461.01 489.624 1460.04 488.653 1459.31 487.416C1458.61 486.157 1458.26 484.707 1458.26 483.064C1458.26 481.421 1458.62 479.981 1459.34 478.744C1460.07 477.485 1461.04 476.504 1462.26 475.8C1463.49 475.096 1464.88 474.744 1466.42 474.744C1467.93 474.744 1469.3 475.096 1470.51 475.8C1471.75 476.504 1472.72 477.485 1473.42 478.744C1474.15 479.981 1474.51 481.421 1474.51 483.064C1474.51 484.707 1474.15 486.157 1473.42 487.416C1472.72 488.653 1471.75 489.624 1470.51 490.328C1469.27 491.032 1467.9 491.384 1466.38 491.384ZM1466.38 487.832C1467.45 487.832 1468.38 487.437 1469.17 486.648C1469.96 485.837 1470.35 484.643 1470.35 483.064C1470.35 481.485 1469.96 480.301 1469.17 479.512C1468.38 478.701 1467.46 478.296 1466.42 478.296C1465.33 478.296 1464.39 478.701 1463.6 479.512C1462.83 480.301 1462.45 481.485 1462.45 483.064C1462.45 484.643 1462.83 485.837 1463.6 486.648C1464.39 487.437 1465.32 487.832 1466.38 487.832ZM1478.17 491V475.128H1481.79L1482.14 477.272C1482.65 476.504 1483.33 475.896 1484.16 475.448C1485.01 474.979 1485.99 474.744 1487.1 474.744C1489.56 474.744 1491.29 475.693 1492.32 477.592C1492.89 476.717 1493.66 476.024 1494.62 475.512C1495.6 475 1496.67 474.744 1497.82 474.744C1499.89 474.744 1501.48 475.363 1502.59 476.6C1503.7 477.837 1504.25 479.651 1504.25 482.04V491H1500.16V482.424C1500.16 481.059 1499.89 480.013 1499.36 479.288C1498.85 478.563 1498.05 478.2 1496.96 478.2C1495.85 478.2 1494.95 478.605 1494.27 479.416C1493.61 480.227 1493.28 481.357 1493.28 482.808V491H1489.18V482.424C1489.18 481.059 1488.92 480.013 1488.38 479.288C1487.85 478.563 1487.03 478.2 1485.92 478.2C1484.83 478.2 1483.94 478.605 1483.26 479.416C1482.6 480.227 1482.27 481.357 1482.27 482.808V491H1478.17ZM1515.85 491.384C1514.25 491.384 1512.84 491.043 1511.6 490.36C1510.36 489.677 1509.39 488.717 1508.69 487.48C1507.98 486.243 1507.63 484.813 1507.63 483.192C1507.63 481.549 1507.97 480.088 1508.65 478.808C1509.36 477.528 1510.32 476.536 1511.53 475.832C1512.77 475.107 1514.22 474.744 1515.89 474.744C1517.44 474.744 1518.82 475.085 1520.01 475.768C1521.21 476.451 1522.14 477.389 1522.8 478.584C1523.48 479.757 1523.82 481.069 1523.82 482.52C1523.82 482.755 1523.81 483 1523.79 483.256C1523.79 483.512 1523.78 483.779 1523.76 484.056H1511.69C1511.78 485.293 1512.21 486.264 1512.97 486.968C1513.76 487.672 1514.71 488.024 1515.82 488.024C1516.65 488.024 1517.35 487.843 1517.9 487.48C1518.48 487.096 1518.91 486.605 1519.18 486.008H1523.34C1523.04 487.011 1522.54 487.928 1521.84 488.76C1521.16 489.571 1520.3 490.211 1519.28 490.68C1518.28 491.149 1517.13 491.384 1515.85 491.384ZM1515.89 478.072C1514.88 478.072 1514 478.36 1513.23 478.936C1512.46 479.491 1511.97 480.344 1511.76 481.496H1519.66C1519.6 480.451 1519.21 479.619 1518.51 479C1517.81 478.381 1516.93 478.072 1515.89 478.072ZM1540.84 491.384C1538.86 491.384 1537.32 490.765 1536.24 489.528C1535.17 488.291 1534.64 486.477 1534.64 484.088V475.128H1538.7V483.704C1538.7 485.069 1538.98 486.115 1539.53 486.84C1540.09 487.565 1540.96 487.928 1542.16 487.928C1543.29 487.928 1544.22 487.523 1544.94 486.712C1545.69 485.901 1546.06 484.771 1546.06 483.32V475.128H1550.16V491H1546.54L1546.22 488.312C1545.73 489.251 1545.02 489.997 1544.08 490.552C1543.16 491.107 1542.08 491.384 1540.84 491.384ZM1554.36 498.04V475.128H1558.01L1558.46 477.4C1558.97 476.696 1559.64 476.077 1560.47 475.544C1561.33 475.011 1562.43 474.744 1563.77 474.744C1565.26 474.744 1566.6 475.107 1567.77 475.832C1568.94 476.557 1569.87 477.549 1570.55 478.808C1571.24 480.067 1571.58 481.496 1571.58 483.096C1571.58 484.696 1571.24 486.125 1570.55 487.384C1569.87 488.621 1568.94 489.603 1567.77 490.328C1566.6 491.032 1565.26 491.384 1563.77 491.384C1562.57 491.384 1561.53 491.16 1560.63 490.712C1559.74 490.264 1559.01 489.635 1558.46 488.824V498.04H1554.36ZM1562.91 487.8C1564.21 487.8 1565.28 487.363 1566.14 486.488C1566.99 485.613 1567.42 484.483 1567.42 483.096C1567.42 481.709 1566.99 480.568 1566.14 479.672C1565.28 478.776 1564.21 478.328 1562.91 478.328C1561.58 478.328 1560.49 478.776 1559.64 479.672C1558.81 480.547 1558.39 481.677 1558.39 483.064C1558.39 484.451 1558.81 485.592 1559.64 486.488C1560.49 487.363 1561.58 487.8 1562.91 487.8ZM1585.97 491L1581.33 475.128H1585.39L1588.14 486.552L1591.34 475.128H1595.89L1599.09 486.552L1601.87 475.128H1605.93L1601.26 491H1597.01L1593.61 479.128L1590.22 491H1585.97ZM1610.73 472.664C1609.98 472.664 1609.36 472.44 1608.87 471.992C1608.4 471.544 1608.17 470.979 1608.17 470.296C1608.17 469.613 1608.4 469.059 1608.87 468.632C1609.36 468.184 1609.98 467.96 1610.73 467.96C1611.47 467.96 1612.08 468.184 1612.55 468.632C1613.04 469.059 1613.29 469.613 1613.29 470.296C1613.29 470.979 1613.04 471.544 1612.55 471.992C1612.08 472.44 1611.47 472.664 1610.73 472.664ZM1608.68 491V475.128H1612.77V491H1608.68ZM1624.12 491C1622.46 491 1621.12 490.595 1620.12 489.784C1619.12 488.973 1618.62 487.533 1618.62 485.464V478.552H1615.9V475.128H1618.62L1619.1 470.872H1622.71V475.128H1627V478.552H1622.71V485.496C1622.71 486.264 1622.87 486.797 1623.19 487.096C1623.53 487.373 1624.11 487.512 1624.92 487.512H1626.9V491H1624.12ZM1630.52 491V467.96H1634.61V477.56C1635.15 476.685 1635.86 476.003 1636.76 475.512C1637.67 475 1638.72 474.744 1639.89 474.744C1641.86 474.744 1643.37 475.363 1644.44 476.6C1645.53 477.837 1646.07 479.651 1646.07 482.04V491H1642.01V482.424C1642.01 481.059 1641.73 480.013 1641.17 479.288C1640.64 478.563 1639.79 478.2 1638.61 478.2C1637.46 478.2 1636.5 478.605 1635.73 479.416C1634.99 480.227 1634.61 481.357 1634.61 482.808V491H1630.52ZM1384.78 536.04V513.128H1388.43L1388.88 515.4C1389.39 514.696 1390.06 514.077 1390.9 513.544C1391.75 513.011 1392.85 512.744 1394.19 512.744C1395.68 512.744 1397.02 513.107 1398.19 513.832C1399.36 514.557 1400.29 515.549 1400.98 516.808C1401.66 518.067 1402 519.496 1402 521.096C1402 522.696 1401.66 524.125 1400.98 525.384C1400.29 526.621 1399.36 527.603 1398.19 528.328C1397.02 529.032 1395.68 529.384 1394.19 529.384C1393 529.384 1391.95 529.16 1391.06 528.712C1390.16 528.264 1389.43 527.635 1388.88 526.824V536.04H1384.78ZM1393.33 525.8C1394.63 525.8 1395.71 525.363 1396.56 524.488C1397.41 523.613 1397.84 522.483 1397.84 521.096C1397.84 519.709 1397.41 518.568 1396.56 517.672C1395.71 516.776 1394.63 516.328 1393.33 516.328C1392 516.328 1390.92 516.776 1390.06 517.672C1389.23 518.547 1388.82 519.677 1388.82 521.064C1388.82 522.451 1389.23 523.592 1390.06 524.488C1390.92 525.363 1392 525.8 1393.33 525.8ZM1405.66 529V513.128H1409.31L1409.69 516.104C1410.27 515.08 1411.04 514.269 1412.03 513.672C1413.03 513.053 1414.2 512.744 1415.55 512.744V517.064H1414.39C1413.5 517.064 1412.7 517.203 1411.99 517.48C1411.29 517.757 1410.74 518.237 1410.33 518.92C1409.95 519.603 1409.75 520.552 1409.75 521.768V529H1405.66ZM1425.68 529.384C1424.14 529.384 1422.76 529.032 1421.52 528.328C1420.3 527.624 1419.33 526.653 1418.61 525.416C1417.9 524.157 1417.55 522.707 1417.55 521.064C1417.55 519.421 1417.92 517.981 1418.64 516.744C1419.37 515.485 1420.34 514.504 1421.55 513.8C1422.79 513.096 1424.18 512.744 1425.71 512.744C1427.23 512.744 1428.59 513.096 1429.81 513.8C1431.05 514.504 1432.02 515.485 1432.72 516.744C1433.45 517.981 1433.81 519.421 1433.81 521.064C1433.81 522.707 1433.45 524.157 1432.72 525.416C1432.02 526.653 1431.05 527.624 1429.81 528.328C1428.57 529.032 1427.2 529.384 1425.68 529.384ZM1425.68 525.832C1426.75 525.832 1427.68 525.437 1428.46 524.648C1429.25 523.837 1429.65 522.643 1429.65 521.064C1429.65 519.485 1429.25 518.301 1428.46 517.512C1427.68 516.701 1426.76 516.296 1425.71 516.296C1424.62 516.296 1423.69 516.701 1422.9 517.512C1422.13 518.301 1421.74 519.485 1421.74 521.064C1421.74 522.643 1422.13 523.837 1422.9 524.648C1423.69 525.437 1424.61 525.832 1425.68 525.832ZM1444.77 529.384C1443.27 529.384 1441.94 529.021 1440.77 528.296C1439.59 527.571 1438.67 526.579 1437.98 525.32C1437.3 524.061 1436.96 522.632 1436.96 521.032C1436.96 519.432 1437.3 518.013 1437.98 516.776C1438.67 515.517 1439.59 514.536 1440.77 513.832C1441.94 513.107 1443.27 512.744 1444.77 512.744C1445.96 512.744 1447.01 512.968 1447.9 513.416C1448.8 513.864 1449.52 514.493 1450.08 515.304V505.96H1454.17V529H1450.53L1450.08 526.728C1449.57 527.432 1448.88 528.051 1448.03 528.584C1447.2 529.117 1446.11 529.384 1444.77 529.384ZM1445.63 525.8C1446.95 525.8 1448.03 525.363 1448.86 524.488C1449.72 523.592 1450.14 522.451 1450.14 521.064C1450.14 519.677 1449.72 518.547 1448.86 517.672C1448.03 516.776 1446.95 516.328 1445.63 516.328C1444.33 516.328 1443.25 516.765 1442.4 517.64C1441.55 518.515 1441.12 519.645 1441.12 521.032C1441.12 522.419 1441.55 523.56 1442.4 524.456C1443.25 525.352 1444.33 525.8 1445.63 525.8ZM1464.3 529.384C1462.31 529.384 1460.78 528.765 1459.69 527.528C1458.62 526.291 1458.09 524.477 1458.09 522.088V513.128H1462.15V521.704C1462.15 523.069 1462.43 524.115 1462.99 524.84C1463.54 525.565 1464.41 525.928 1465.61 525.928C1466.74 525.928 1467.67 525.523 1468.39 524.712C1469.14 523.901 1469.51 522.771 1469.51 521.32V513.128H1473.61V529H1469.99L1469.67 526.312C1469.18 527.251 1468.47 527.997 1467.53 528.552C1466.61 529.107 1465.53 529.384 1464.3 529.384ZM1485.59 529.384C1483.97 529.384 1482.54 529.032 1481.3 528.328C1480.07 527.624 1479.08 526.643 1478.36 525.384C1477.65 524.125 1477.3 522.685 1477.3 521.064C1477.3 519.443 1477.65 518.003 1478.36 516.744C1479.08 515.485 1480.07 514.504 1481.3 513.8C1482.54 513.096 1483.97 512.744 1485.59 512.744C1487.62 512.744 1489.32 513.277 1490.71 514.344C1492.1 515.389 1492.98 516.84 1493.37 518.696H1489.05C1488.83 517.928 1488.41 517.331 1487.77 516.904C1487.15 516.456 1486.41 516.232 1485.56 516.232C1484.43 516.232 1483.47 516.659 1482.68 517.512C1481.89 518.365 1481.49 519.549 1481.49 521.064C1481.49 522.579 1481.89 523.763 1482.68 524.616C1483.47 525.469 1484.43 525.896 1485.56 525.896C1486.41 525.896 1487.15 525.683 1487.77 525.256C1488.41 524.829 1488.83 524.221 1489.05 523.432H1493.37C1492.98 525.224 1492.1 526.664 1490.71 527.752C1489.32 528.84 1487.62 529.384 1485.59 529.384ZM1503.86 529C1502.19 529 1500.86 528.595 1499.86 527.784C1498.85 526.973 1498.35 525.533 1498.35 523.464V516.552H1495.63V513.128H1498.35L1498.83 508.872H1502.45V513.128H1506.74V516.552H1502.45V523.496C1502.45 524.264 1502.61 524.797 1502.93 525.096C1503.27 525.373 1503.84 525.512 1504.66 525.512H1506.64V529H1503.86ZM1517.88 529V505.96H1521.97V515.56C1522.51 514.685 1523.22 514.003 1524.12 513.512C1525.03 513 1526.08 512.744 1527.25 512.744C1529.22 512.744 1530.73 513.363 1531.8 514.6C1532.88 515.837 1533.43 517.651 1533.43 520.04V529H1529.36V520.424C1529.36 519.059 1529.09 518.013 1528.53 517.288C1528 516.563 1527.15 516.2 1525.97 516.2C1524.82 516.2 1523.86 516.605 1523.09 517.416C1522.35 518.227 1521.97 519.357 1521.97 520.808V529H1517.88ZM1538.8 536.04L1542.48 527.944H1541.52L1535.34 513.128H1539.79L1544.24 524.296L1548.88 513.128H1553.23L1543.15 536.04H1538.8ZM1555.91 536.04V513.128H1559.56L1560 515.4C1560.52 514.696 1561.19 514.077 1562.02 513.544C1562.87 513.011 1563.97 512.744 1565.32 512.744C1566.81 512.744 1568.14 513.107 1569.32 513.832C1570.49 514.557 1571.42 515.549 1572.1 516.808C1572.78 518.067 1573.12 519.496 1573.12 521.096C1573.12 522.696 1572.78 524.125 1572.1 525.384C1571.42 526.621 1570.49 527.603 1569.32 528.328C1568.14 529.032 1566.81 529.384 1565.32 529.384C1564.12 529.384 1563.08 529.16 1562.18 528.712C1561.28 528.264 1560.56 527.635 1560 526.824V536.04H1555.91ZM1564.45 525.8C1565.75 525.8 1566.83 525.363 1567.68 524.488C1568.54 523.613 1568.96 522.483 1568.96 521.096C1568.96 519.709 1568.54 518.568 1567.68 517.672C1566.83 516.776 1565.75 516.328 1564.45 516.328C1563.13 516.328 1562.04 516.776 1561.19 517.672C1560.36 518.547 1559.94 519.677 1559.94 521.064C1559.94 522.451 1560.36 523.592 1561.19 524.488C1562.04 525.363 1563.13 525.8 1564.45 525.8ZM1584.4 529.384C1582.86 529.384 1581.48 529.032 1580.24 528.328C1579.02 527.624 1578.05 526.653 1577.33 525.416C1576.62 524.157 1576.27 522.707 1576.27 521.064C1576.27 519.421 1576.63 517.981 1577.36 516.744C1578.08 515.485 1579.06 514.504 1580.27 513.8C1581.51 513.096 1582.9 512.744 1584.43 512.744C1585.95 512.744 1587.31 513.096 1588.53 513.8C1589.76 514.504 1590.74 515.485 1591.44 516.744C1592.16 517.981 1592.53 519.421 1592.53 521.064C1592.53 522.707 1592.16 524.157 1591.44 525.416C1590.74 526.653 1589.76 527.624 1588.53 528.328C1587.29 529.032 1585.91 529.384 1584.4 529.384ZM1584.4 525.832C1585.47 525.832 1586.39 525.437 1587.18 524.648C1587.97 523.837 1588.37 522.643 1588.37 521.064C1588.37 519.485 1587.97 518.301 1587.18 517.512C1586.39 516.701 1585.48 516.296 1584.43 516.296C1583.34 516.296 1582.4 516.701 1581.62 517.512C1580.85 518.301 1580.46 519.485 1580.46 521.064C1580.46 522.643 1580.85 523.837 1581.62 524.648C1582.4 525.437 1583.33 525.832 1584.4 525.832ZM1602.64 529C1600.97 529 1599.64 528.595 1598.64 527.784C1597.63 526.973 1597.13 525.533 1597.13 523.464V516.552H1594.41V513.128H1597.13L1597.61 508.872H1601.23V513.128H1605.52V516.552H1601.23V523.496C1601.23 524.264 1601.39 524.797 1601.71 525.096C1602.05 525.373 1602.63 525.512 1603.44 525.512H1605.42V529H1602.64ZM1609.03 529V505.96H1613.13V515.56C1613.66 514.685 1614.38 514.003 1615.27 513.512C1616.19 513 1617.24 512.744 1618.41 512.744C1620.37 512.744 1621.89 513.363 1622.95 514.6C1624.04 515.837 1624.59 517.651 1624.59 520.04V529H1620.52V520.424C1620.52 519.059 1620.24 518.013 1619.69 517.288C1619.16 516.563 1618.3 516.2 1617.13 516.2C1615.98 516.2 1615.02 516.605 1614.25 517.416C1613.5 518.227 1613.13 519.357 1613.13 520.808V529H1609.03ZM1636.21 529.384C1634.61 529.384 1633.2 529.043 1631.96 528.36C1630.72 527.677 1629.75 526.717 1629.05 525.48C1628.34 524.243 1627.99 522.813 1627.99 521.192C1627.99 519.549 1628.33 518.088 1629.01 516.808C1629.72 515.528 1630.68 514.536 1631.89 513.832C1633.13 513.107 1634.58 512.744 1636.25 512.744C1637.8 512.744 1639.18 513.085 1640.37 513.768C1641.57 514.451 1642.5 515.389 1643.16 516.584C1643.84 517.757 1644.18 519.069 1644.18 520.52C1644.18 520.755 1644.17 521 1644.15 521.256C1644.15 521.512 1644.14 521.779 1644.12 522.056H1632.05C1632.14 523.293 1632.57 524.264 1633.33 524.968C1634.12 525.672 1635.07 526.024 1636.18 526.024C1637.01 526.024 1637.71 525.843 1638.26 525.48C1638.84 525.096 1639.26 524.605 1639.54 524.008H1643.7C1643.4 525.011 1642.9 525.928 1642.2 526.76C1641.52 527.571 1640.66 528.211 1639.64 528.68C1638.64 529.149 1637.49 529.384 1636.21 529.384ZM1636.25 516.072C1635.24 516.072 1634.36 516.36 1633.59 516.936C1632.82 517.491 1632.33 518.344 1632.12 519.496H1640.02C1639.96 518.451 1639.57 517.619 1638.87 517C1638.17 516.381 1637.29 516.072 1636.25 516.072ZM1654.19 529.384C1652.78 529.384 1651.54 529.16 1650.47 528.712C1649.41 528.243 1648.55 527.603 1647.91 526.792C1647.27 525.981 1646.89 525.043 1646.76 523.976H1650.89C1651.02 524.595 1651.36 525.128 1651.91 525.576C1652.49 526.003 1653.23 526.216 1654.12 526.216C1655.02 526.216 1655.67 526.035 1656.07 525.672C1656.5 525.309 1656.71 524.893 1656.71 524.424C1656.71 523.741 1656.42 523.283 1655.82 523.048C1655.22 522.792 1654.39 522.547 1653.32 522.312C1652.64 522.163 1651.95 521.981 1651.24 521.768C1650.54 521.555 1649.89 521.288 1649.29 520.968C1648.71 520.627 1648.25 520.2 1647.88 519.688C1647.52 519.155 1647.34 518.504 1647.34 517.736C1647.34 516.328 1647.89 515.144 1649 514.184C1650.13 513.224 1651.71 512.744 1653.74 512.744C1655.62 512.744 1657.11 513.181 1658.22 514.056C1659.35 514.931 1660.02 516.136 1660.23 517.672H1656.36C1656.13 516.499 1655.24 515.912 1653.71 515.912C1652.94 515.912 1652.34 516.061 1651.91 516.36C1651.51 516.659 1651.31 517.032 1651.31 517.48C1651.31 517.949 1651.62 518.323 1652.23 518.6C1652.85 518.877 1653.67 519.133 1654.7 519.368C1655.81 519.624 1656.82 519.912 1657.74 520.232C1658.68 520.531 1659.42 520.989 1659.98 521.608C1660.53 522.205 1660.81 523.069 1660.81 524.2C1660.83 525.181 1660.58 526.067 1660.04 526.856C1659.51 527.645 1658.74 528.264 1657.74 528.712C1656.74 529.16 1655.55 529.384 1654.19 529.384ZM1672.15 529.384C1670.55 529.384 1669.13 529.043 1667.9 528.36C1666.66 527.677 1665.69 526.717 1664.98 525.48C1664.28 524.243 1663.93 522.813 1663.93 521.192C1663.93 519.549 1664.27 518.088 1664.95 516.808C1665.66 515.528 1666.62 514.536 1667.83 513.832C1669.07 513.107 1670.52 512.744 1672.18 512.744C1673.74 512.744 1675.12 513.085 1676.31 513.768C1677.51 514.451 1678.43 515.389 1679.1 516.584C1679.78 517.757 1680.12 519.069 1680.12 520.52C1680.12 520.755 1680.11 521 1680.09 521.256C1680.09 521.512 1680.08 521.779 1680.06 522.056H1667.99C1668.08 523.293 1668.5 524.264 1669.27 524.968C1670.06 525.672 1671.01 526.024 1672.12 526.024C1672.95 526.024 1673.64 525.843 1674.2 525.48C1674.78 525.096 1675.2 524.605 1675.48 524.008H1679.64C1679.34 525.011 1678.84 525.928 1678.14 526.76C1677.45 527.571 1676.6 528.211 1675.58 528.68C1674.57 529.149 1673.43 529.384 1672.15 529.384ZM1672.18 516.072C1671.18 516.072 1670.3 516.36 1669.53 516.936C1668.76 517.491 1668.27 518.344 1668.06 519.496H1675.96C1675.9 518.451 1675.51 517.619 1674.81 517C1674.1 516.381 1673.23 516.072 1672.18 516.072ZM1690.12 529.384C1688.72 529.384 1687.48 529.16 1686.41 528.712C1685.35 528.243 1684.49 527.603 1683.85 526.792C1683.21 525.981 1682.83 525.043 1682.7 523.976H1686.83C1686.96 524.595 1687.3 525.128 1687.85 525.576C1688.43 526.003 1689.16 526.216 1690.06 526.216C1690.96 526.216 1691.61 526.035 1692.01 525.672C1692.44 525.309 1692.65 524.893 1692.65 524.424C1692.65 523.741 1692.35 523.283 1691.76 523.048C1691.16 522.792 1690.33 522.547 1689.26 522.312C1688.58 522.163 1687.88 521.981 1687.18 521.768C1686.48 521.555 1685.83 521.288 1685.23 520.968C1684.65 520.627 1684.18 520.2 1683.82 519.688C1683.46 519.155 1683.28 518.504 1683.28 517.736C1683.28 516.328 1683.83 515.144 1684.94 514.184C1686.07 513.224 1687.65 512.744 1689.68 512.744C1691.55 512.744 1693.05 513.181 1694.16 514.056C1695.29 514.931 1695.96 516.136 1696.17 517.672H1692.3C1692.07 516.499 1691.18 515.912 1689.64 515.912C1688.88 515.912 1688.28 516.061 1687.85 516.36C1687.45 516.659 1687.24 517.032 1687.24 517.48C1687.24 517.949 1687.55 518.323 1688.17 518.6C1688.79 518.877 1689.61 519.133 1690.64 519.368C1691.75 519.624 1692.76 519.912 1693.68 520.232C1694.62 520.531 1695.36 520.989 1695.92 521.608C1696.47 522.205 1696.75 523.069 1696.75 524.2C1696.77 525.181 1696.51 526.067 1695.98 526.856C1695.45 527.645 1694.68 528.264 1693.68 528.712C1692.67 529.16 1691.49 529.384 1690.12 529.384Z" fill="black"/>
<path d="M150.379 491V468.6H154.475V477.656L162.763 468.6H167.819L159.563 477.496L168.043 491H163.019L156.619 480.632L154.475 482.968V491H150.379ZM177.151 491.384C175.551 491.384 174.133 491.043 172.895 490.36C171.658 489.677 170.687 488.717 169.983 487.48C169.279 486.243 168.927 484.813 168.927 483.192C168.927 481.549 169.269 480.088 169.951 478.808C170.655 477.528 171.615 476.536 172.831 475.832C174.069 475.107 175.519 474.744 177.183 474.744C178.741 474.744 180.117 475.085 181.311 475.768C182.506 476.451 183.434 477.389 184.095 478.584C184.778 479.757 185.119 481.069 185.119 482.52C185.119 482.755 185.109 483 185.087 483.256C185.087 483.512 185.077 483.779 185.055 484.056H172.991C173.077 485.293 173.503 486.264 174.271 486.968C175.061 487.672 176.01 488.024 177.119 488.024C177.951 488.024 178.645 487.843 179.199 487.48C179.775 487.096 180.202 486.605 180.479 486.008H184.639C184.341 487.011 183.839 487.928 183.135 488.76C182.453 489.571 181.599 490.211 180.575 490.68C179.573 491.149 178.431 491.384 177.151 491.384ZM177.183 478.072C176.181 478.072 175.295 478.36 174.527 478.936C173.759 479.491 173.269 480.344 173.055 481.496H180.959C180.895 480.451 180.511 479.619 179.807 479C179.103 478.381 178.229 478.072 177.183 478.072ZM196.276 491.384C194.676 491.384 193.258 491.043 192.02 490.36C190.783 489.677 189.812 488.717 189.108 487.48C188.404 486.243 188.052 484.813 188.052 483.192C188.052 481.549 188.394 480.088 189.076 478.808C189.78 477.528 190.74 476.536 191.956 475.832C193.194 475.107 194.644 474.744 196.308 474.744C197.866 474.744 199.242 475.085 200.436 475.768C201.631 476.451 202.559 477.389 203.22 478.584C203.903 479.757 204.244 481.069 204.244 482.52C204.244 482.755 204.234 483 204.212 483.256C204.212 483.512 204.202 483.779 204.18 484.056H192.116C192.202 485.293 192.628 486.264 193.396 486.968C194.186 487.672 195.135 488.024 196.244 488.024C197.076 488.024 197.77 487.843 198.324 487.48C198.9 487.096 199.327 486.605 199.604 486.008H203.764C203.466 487.011 202.964 487.928 202.26 488.76C201.578 489.571 200.724 490.211 199.7 490.68C198.698 491.149 197.556 491.384 196.276 491.384ZM196.308 478.072C195.306 478.072 194.42 478.36 193.652 478.936C192.884 479.491 192.394 480.344 192.18 481.496H200.084C200.02 480.451 199.636 479.619 198.932 479C198.228 478.381 197.354 478.072 196.308 478.072ZM207.689 498.04V475.128H211.337L211.785 477.4C212.297 476.696 212.969 476.077 213.801 475.544C214.655 475.011 215.753 474.744 217.097 474.744C218.591 474.744 219.924 475.107 221.097 475.832C222.271 476.557 223.199 477.549 223.881 478.808C224.564 480.067 224.905 481.496 224.905 483.096C224.905 484.696 224.564 486.125 223.881 487.384C223.199 488.621 222.271 489.603 221.097 490.328C219.924 491.032 218.591 491.384 217.097 491.384C215.903 491.384 214.857 491.16 213.961 490.712C213.065 490.264 212.34 489.635 211.785 488.824V498.04H207.689ZM216.233 487.8C217.535 487.8 218.612 487.363 219.465 486.488C220.319 485.613 220.745 484.483 220.745 483.096C220.745 481.709 220.319 480.568 219.465 479.672C218.612 478.776 217.535 478.328 216.233 478.328C214.911 478.328 213.823 478.776 212.969 479.672C212.137 480.547 211.721 481.677 211.721 483.064C211.721 484.451 212.137 485.592 212.969 486.488C213.823 487.363 214.911 487.8 216.233 487.8ZM226.932 494.712L228.756 486.744H232.724L229.62 494.712H226.932ZM243.692 491V468.6H247.788V477.656L256.076 468.6H261.132L252.876 477.496L261.356 491H256.332L249.932 480.632L247.788 482.968V491H243.692ZM266.272 472.664C265.526 472.664 264.907 472.44 264.416 471.992C263.947 471.544 263.712 470.979 263.712 470.296C263.712 469.613 263.947 469.059 264.416 468.632C264.907 468.184 265.526 467.96 266.272 467.96C267.019 467.96 267.627 468.184 268.096 468.632C268.587 469.059 268.832 469.613 268.832 470.296C268.832 470.979 268.587 471.544 268.096 471.992C267.627 472.44 267.019 472.664 266.272 472.664ZM264.224 491V475.128H268.32V491H264.224ZM272.596 491V467.96H276.692V491H272.596ZM280.877 491V467.96H284.973V491H280.877ZM304.399 491.384C302.863 491.384 301.476 491.032 300.239 490.328C299.023 489.624 298.052 488.653 297.327 487.416C296.623 486.157 296.271 484.707 296.271 483.064C296.271 481.421 296.634 479.981 297.359 478.744C298.084 477.485 299.055 476.504 300.271 475.8C301.508 475.096 302.895 474.744 304.431 474.744C305.946 474.744 307.311 475.096 308.527 475.8C309.764 476.504 310.735 477.485 311.439 478.744C312.164 479.981 312.527 481.421 312.527 483.064C312.527 484.707 312.164 486.157 311.439 487.416C310.735 488.653 309.764 489.624 308.527 490.328C307.29 491.032 305.914 491.384 304.399 491.384ZM304.399 487.832C305.466 487.832 306.394 487.437 307.183 486.648C307.972 485.837 308.367 484.643 308.367 483.064C308.367 481.485 307.972 480.301 307.183 479.512C306.394 478.701 305.476 478.296 304.431 478.296C303.343 478.296 302.404 478.701 301.615 479.512C300.847 480.301 300.463 481.485 300.463 483.064C300.463 484.643 300.847 485.837 301.615 486.648C302.404 487.437 303.332 487.832 304.399 487.832ZM316.189 491V475.128H319.837L320.221 478.104C320.797 477.08 321.576 476.269 322.557 475.672C323.56 475.053 324.733 474.744 326.077 474.744V479.064H324.925C324.029 479.064 323.229 479.203 322.525 479.48C321.821 479.757 321.267 480.237 320.861 480.92C320.477 481.603 320.285 482.552 320.285 483.768V491H316.189ZM201.114 529V506.6H209.402C211.194 506.6 212.676 506.899 213.85 507.496C215.023 508.093 215.898 508.915 216.474 509.96C217.05 511.005 217.338 512.179 217.338 513.48C217.338 514.717 217.06 515.859 216.506 516.904C215.951 517.928 215.087 518.76 213.914 519.4C212.74 520.019 211.236 520.328 209.402 520.328H205.21V529H201.114ZM205.21 517H209.146C210.575 517 211.599 516.691 212.218 516.072C212.858 515.432 213.178 514.568 213.178 513.48C213.178 512.371 212.858 511.507 212.218 510.888C211.599 510.248 210.575 509.928 209.146 509.928H205.21V517ZM222.663 510.664C221.916 510.664 221.298 510.44 220.807 509.992C220.338 509.544 220.103 508.979 220.103 508.296C220.103 507.613 220.338 507.059 220.807 506.632C221.298 506.184 221.916 505.96 222.663 505.96C223.41 505.96 224.018 506.184 224.487 506.632C224.978 507.059 225.223 507.613 225.223 508.296C225.223 508.979 224.978 509.544 224.487 509.992C224.018 510.44 223.41 510.664 222.663 510.664ZM220.615 529V513.128H224.711V529H220.615ZM233.274 529L227.45 513.128H231.738L235.77 525.128L239.802 513.128H244.09L238.234 529H233.274ZM253.509 529.384C251.973 529.384 250.586 529.032 249.349 528.328C248.133 527.624 247.162 526.653 246.437 525.416C245.733 524.157 245.381 522.707 245.381 521.064C245.381 519.421 245.743 517.981 246.469 516.744C247.194 515.485 248.165 514.504 249.381 513.8C250.618 513.096 252.005 512.744 253.541 512.744C255.055 512.744 256.421 513.096 257.637 513.8C258.874 514.504 259.845 515.485 260.549 516.744C261.274 517.981 261.637 519.421 261.637 521.064C261.637 522.707 261.274 524.157 260.549 525.416C259.845 526.653 258.874 527.624 257.637 528.328C256.399 529.032 255.023 529.384 253.509 529.384ZM253.509 525.832C254.575 525.832 255.503 525.437 256.293 524.648C257.082 523.837 257.477 522.643 257.477 521.064C257.477 519.485 257.082 518.301 256.293 517.512C255.503 516.701 254.586 516.296 253.541 516.296C252.453 516.296 251.514 516.701 250.725 517.512C249.957 518.301 249.573 519.485 249.573 521.064C249.573 522.643 249.957 523.837 250.725 524.648C251.514 525.437 252.442 525.832 253.509 525.832ZM271.746 529C270.082 529 268.748 528.595 267.746 527.784C266.743 526.973 266.242 525.533 266.242 523.464V516.552H263.522V513.128H266.242L266.722 508.872H270.338V513.128H274.626V516.552H270.338V523.496C270.338 524.264 270.498 524.797 270.818 525.096C271.159 525.373 271.735 525.512 272.546 525.512H274.53V529H271.746Z" fill="black"/>
<g filter="url(#filter6_d_198_2)">
<circle cx="889.5" cy="89.5" r="35.5" fill="black"/>
</g>
<g filter="url(#filter7_d_198_2)">
<circle cx="1540.5" cy="394.5" r="35.5" fill="black"/>
</g>
<g filter="url(#filter8_d_198_2)">
<circle cx="237.5" cy="394.5" r="35.5" fill="black"/>
</g>
<g filter="url(#filter9_d_198_2)">
<circle cx="1530.5" cy="898.5" r="35.5" fill="black"/>
</g>
<g filter="url(#filter10_d_198_2)">
<circle cx="227.5" cy="898.5" r="35.5" fill="black"/>
</g>
<g filter="url(#filter11_d_198_2)">
<circle cx="889.5" cy="1240.5" r="35.5" fill="black"/>
</g>
<path d="M891.879 95.168V77.6H886.119C886.119 81.888 881.735 81.888 878.439 81.888V86.752C880.775 86.752 883.751 86.752 886.183 84.608L886.151 95.168H878.439V100H899.559V95.168H891.879Z" fill="white"/>
<path d="M1552.7 389.32C1552.7 383.752 1548.19 382.28 1540.47 382.28C1533.05 382.28 1527.8 383.944 1527.8 391.4H1533.56C1533.56 387.848 1535.83 387.112 1540.79 387.112C1545.75 387.112 1546.94 387.912 1546.94 389.768C1546.94 394.856 1527.29 392.776 1527.29 402.088V405H1552.38V400.168H1535.35C1536.76 395.72 1552.7 397.992 1552.7 389.32Z" fill="white"/>
<path d="M239.52 389.896C235.296 389.896 232.32 390.984 230.592 392.328C231.168 387.784 233.664 386.856 238.208 386.856C242.368 386.856 245.632 387.592 248.8 388.2V383.624C246.08 383.048 242.368 382.28 236.8 382.28C230.208 382.28 224.704 385.064 224.704 394.344C224.704 401.576 228.544 405.32 238.144 405.32C246.048 405.32 250.304 402.696 250.304 397.48C250.304 392.072 246.048 389.896 239.52 389.896ZM237.504 400.744C232.416 400.744 230.464 399.336 230.464 397C230.464 394.632 232.576 393.288 237.504 393.288C242.976 393.288 244.544 394.664 244.544 397C244.544 399.336 242.944 400.744 237.504 400.744Z" fill="white"/>
<path d="M1539.24 897.8C1541.39 896.776 1542.7 895.24 1542.7 892.904C1542.7 887.944 1538.19 886.28 1530.31 886.28C1522.54 886.28 1517.29 887.944 1517.29 895.08H1523.05C1523.05 891.688 1525.16 891.112 1530.63 891.112C1535.59 891.112 1536.94 891.688 1536.94 893.64C1536.94 895.88 1535.05 896.072 1527.43 896.072V899.528C1535.21 899.528 1536.94 899.72 1536.94 901.96C1536.94 904.104 1535.21 904.488 1530.63 904.488C1525.71 904.488 1523.05 904.104 1523.05 900.52H1517.29C1517.29 907.656 1522.54 909.32 1530.31 909.32C1538.19 909.32 1542.7 907.656 1542.7 902.696C1542.7 900.36 1541.39 898.824 1539.24 897.8Z" fill="white"/>
<path d="M230.482 893.896C226.834 893.896 224.434 894.536 221.138 895.944L222.578 891.176H238.098V886.6H218.29L215.41 898.248L220.146 899.176C223.986 897.64 226.194 897.192 228.402 897.192C232.786 897.192 233.938 898.664 233.938 900.776C233.938 903.048 232.402 904.488 227.634 904.488C222.706 904.488 220.05 903.752 220.05 901.224H214.29C214.29 907.848 220.05 909.32 227.474 909.32C234.962 909.32 239.698 906.984 239.698 901.416C239.698 896.616 236.274 893.896 230.482 893.896Z" fill="white"/>
<path d="M902.518 1242.49H898.038V1228.6H892.278L876.47 1242.49V1247.35H892.278V1251H898.038V1247.35H902.518V1242.49ZM882.678 1242.49L892.278 1234.36V1242.49H882.678Z" fill="white"/>
<path d="M1463.07 995V972.6H1471.35C1473.15 972.6 1474.63 972.899 1475.8 973.496C1476.98 974.093 1477.85 974.915 1478.43 975.96C1479 977.005 1479.29 978.179 1479.29 979.48C1479.29 980.717 1479.01 981.859 1478.46 982.904C1477.9 983.928 1477.04 984.76 1475.87 985.4C1474.69 986.019 1473.19 986.328 1471.35 986.328H1467.16V995H1463.07ZM1467.16 983H1471.1C1472.53 983 1473.55 982.691 1474.17 982.072C1474.81 981.432 1475.13 980.568 1475.13 979.48C1475.13 978.371 1474.81 977.507 1474.17 976.888C1473.55 976.248 1472.53 975.928 1471.1 975.928H1467.16V983ZM1482.41 995V979.128H1486.06L1486.44 982.104C1487.02 981.08 1487.79 980.269 1488.78 979.672C1489.78 979.053 1490.95 978.744 1492.3 978.744V983.064H1491.14C1490.25 983.064 1489.45 983.203 1488.74 983.48C1488.04 983.757 1487.49 984.237 1487.08 984.92C1486.7 985.603 1486.5 986.552 1486.5 987.768V995H1482.41ZM1497.3 976.664C1496.56 976.664 1495.94 976.44 1495.45 975.992C1494.98 975.544 1494.74 974.979 1494.74 974.296C1494.74 973.613 1494.98 973.059 1495.45 972.632C1495.94 972.184 1496.56 971.96 1497.3 971.96C1498.05 971.96 1498.66 972.184 1499.13 972.632C1499.62 973.059 1499.86 973.613 1499.86 974.296C1499.86 974.979 1499.62 975.544 1499.13 975.992C1498.66 976.44 1498.05 976.664 1497.3 976.664ZM1495.26 995V979.128H1499.35V995H1495.26ZM1511.24 995.384C1509.71 995.384 1508.32 995.032 1507.08 994.328C1505.87 993.624 1504.9 992.653 1504.17 991.416C1503.47 990.157 1503.11 988.707 1503.11 987.064C1503.11 985.421 1503.48 983.981 1504.2 982.744C1504.93 981.485 1505.9 980.504 1507.11 979.8C1508.35 979.096 1509.74 978.744 1511.27 978.744C1512.79 978.744 1514.15 979.096 1515.37 979.8C1516.61 980.504 1517.58 981.485 1518.28 982.744C1519.01 983.981 1519.37 985.421 1519.37 987.064C1519.37 988.707 1519.01 990.157 1518.28 991.416C1517.58 992.653 1516.61 993.624 1515.37 994.328C1514.13 995.032 1512.76 995.384 1511.24 995.384ZM1511.24 991.832C1512.31 991.832 1513.24 991.437 1514.03 990.648C1514.82 989.837 1515.21 988.643 1515.21 987.064C1515.21 985.485 1514.82 984.301 1514.03 983.512C1513.24 982.701 1512.32 982.296 1511.27 982.296C1510.19 982.296 1509.25 982.701 1508.46 983.512C1507.69 984.301 1507.31 985.485 1507.31 987.064C1507.31 988.643 1507.69 989.837 1508.46 990.648C1509.25 991.437 1510.18 991.832 1511.24 991.832ZM1523.03 995V979.128H1526.68L1527.07 982.104C1527.64 981.08 1528.42 980.269 1529.4 979.672C1530.4 979.053 1531.58 978.744 1532.92 978.744V983.064H1531.77C1530.87 983.064 1530.07 983.203 1529.37 983.48C1528.67 983.757 1528.11 984.237 1527.71 984.92C1527.32 985.603 1527.13 986.552 1527.13 987.768V995H1523.03ZM1537.93 976.664C1537.18 976.664 1536.56 976.44 1536.07 975.992C1535.6 975.544 1535.37 974.979 1535.37 974.296C1535.37 973.613 1535.6 973.059 1536.07 972.632C1536.56 972.184 1537.18 971.96 1537.93 971.96C1538.68 971.96 1539.28 972.184 1539.75 972.632C1540.24 973.059 1540.49 973.613 1540.49 974.296C1540.49 974.979 1540.24 975.544 1539.75 975.992C1539.28 976.44 1538.68 976.664 1537.93 976.664ZM1535.88 995V979.128H1539.98V995H1535.88ZM1551.32 995C1549.66 995 1548.33 994.595 1547.32 993.784C1546.32 992.973 1545.82 991.533 1545.82 989.464V982.552H1543.1V979.128H1545.82L1546.3 974.872H1549.92V979.128H1554.2V982.552H1549.92V989.496C1549.92 990.264 1550.08 990.797 1550.4 991.096C1550.74 991.373 1551.31 991.512 1552.12 991.512H1554.11V995H1551.32ZM1559.93 976.664C1559.18 976.664 1558.56 976.44 1558.07 975.992C1557.6 975.544 1557.37 974.979 1557.37 974.296C1557.37 973.613 1557.6 973.059 1558.07 972.632C1558.56 972.184 1559.18 971.96 1559.93 971.96C1560.68 971.96 1561.28 972.184 1561.75 972.632C1562.24 973.059 1562.49 973.613 1562.49 974.296C1562.49 974.979 1562.24 975.544 1561.75 975.992C1561.28 976.44 1560.68 976.664 1559.93 976.664ZM1557.88 995V979.128H1561.98V995H1557.88ZM1572.81 995.384C1571.4 995.384 1570.17 995.16 1569.1 994.712C1568.03 994.243 1567.18 993.603 1566.54 992.792C1565.9 991.981 1565.52 991.043 1565.39 989.976H1569.52C1569.64 990.595 1569.99 991.128 1570.54 991.576C1571.12 992.003 1571.85 992.216 1572.75 992.216C1573.64 992.216 1574.29 992.035 1574.7 991.672C1575.13 991.309 1575.34 990.893 1575.34 990.424C1575.34 989.741 1575.04 989.283 1574.44 989.048C1573.85 988.792 1573.01 988.547 1571.95 988.312C1571.27 988.163 1570.57 987.981 1569.87 987.768C1569.16 987.555 1568.51 987.288 1567.92 986.968C1567.34 986.627 1566.87 986.2 1566.51 985.688C1566.15 985.155 1565.96 984.504 1565.96 983.736C1565.96 982.328 1566.52 981.144 1567.63 980.184C1568.76 979.224 1570.34 978.744 1572.36 978.744C1574.24 978.744 1575.73 979.181 1576.84 980.056C1577.97 980.931 1578.65 982.136 1578.86 983.672H1574.99C1574.75 982.499 1573.87 981.912 1572.33 981.912C1571.56 981.912 1570.97 982.061 1570.54 982.36C1570.13 982.659 1569.93 983.032 1569.93 983.48C1569.93 983.949 1570.24 984.323 1570.86 984.6C1571.48 984.877 1572.3 985.133 1573.32 985.368C1574.43 985.624 1575.45 985.912 1576.36 986.232C1577.3 986.531 1578.05 986.989 1578.6 987.608C1579.16 988.205 1579.44 989.069 1579.44 990.2C1579.46 991.181 1579.2 992.067 1578.67 992.856C1578.13 993.645 1577.37 994.264 1576.36 994.712C1575.36 995.16 1574.18 995.384 1572.81 995.384ZM1590.78 995.384C1589.18 995.384 1587.76 995.043 1586.52 994.36C1585.28 993.677 1584.31 992.717 1583.61 991.48C1582.9 990.243 1582.55 988.813 1582.55 987.192C1582.55 985.549 1582.89 984.088 1583.58 982.808C1584.28 981.528 1585.24 980.536 1586.46 979.832C1587.69 979.107 1589.14 978.744 1590.81 978.744C1592.37 978.744 1593.74 979.085 1594.94 979.768C1596.13 980.451 1597.06 981.389 1597.72 982.584C1598.4 983.757 1598.74 985.069 1598.74 986.52C1598.74 986.755 1598.73 987 1598.71 987.256C1598.71 987.512 1598.7 987.779 1598.68 988.056H1586.62C1586.7 989.293 1587.13 990.264 1587.9 990.968C1588.69 991.672 1589.64 992.024 1590.74 992.024C1591.58 992.024 1592.27 991.843 1592.82 991.48C1593.4 991.096 1593.83 990.605 1594.1 990.008H1598.26C1597.97 991.011 1597.46 991.928 1596.76 992.76C1596.08 993.571 1595.22 994.211 1594.2 994.68C1593.2 995.149 1592.06 995.384 1590.78 995.384ZM1590.81 982.072C1589.81 982.072 1588.92 982.36 1588.15 982.936C1587.38 983.491 1586.89 984.344 1586.68 985.496H1594.58C1594.52 984.451 1594.14 983.619 1593.43 983C1592.73 982.381 1591.85 982.072 1590.81 982.072ZM1441.33 1033V1009.96H1445.43V1019.56C1445.96 1018.69 1446.67 1018 1447.57 1017.51C1448.49 1017 1449.53 1016.74 1450.71 1016.74C1452.67 1016.74 1454.18 1017.36 1455.25 1018.6C1456.34 1019.84 1456.88 1021.65 1456.88 1024.04V1033H1452.82V1024.42C1452.82 1023.06 1452.54 1022.01 1451.99 1021.29C1451.45 1020.56 1450.6 1020.2 1449.43 1020.2C1448.27 1020.2 1447.31 1020.61 1446.55 1021.42C1445.8 1022.23 1445.43 1023.36 1445.43 1024.81V1033H1441.33ZM1462.25 1040.04L1465.93 1031.94H1464.97L1458.8 1017.13H1463.24L1467.69 1028.3L1472.33 1017.13H1476.68L1466.6 1040.04H1462.25ZM1479.36 1040.04V1017.13H1483.01L1483.46 1019.4C1483.97 1018.7 1484.64 1018.08 1485.47 1017.54C1486.33 1017.01 1487.43 1016.74 1488.77 1016.74C1490.26 1016.74 1491.6 1017.11 1492.77 1017.83C1493.94 1018.56 1494.87 1019.55 1495.55 1020.81C1496.24 1022.07 1496.58 1023.5 1496.58 1025.1C1496.58 1026.7 1496.24 1028.13 1495.55 1029.38C1494.87 1030.62 1493.94 1031.6 1492.77 1032.33C1491.6 1033.03 1490.26 1033.38 1488.77 1033.38C1487.57 1033.38 1486.53 1033.16 1485.63 1032.71C1484.74 1032.26 1484.01 1031.63 1483.46 1030.82V1040.04H1479.36ZM1487.91 1029.8C1489.21 1029.8 1490.28 1029.36 1491.14 1028.49C1491.99 1027.61 1492.42 1026.48 1492.42 1025.1C1492.42 1023.71 1491.99 1022.57 1491.14 1021.67C1490.28 1020.78 1489.21 1020.33 1487.91 1020.33C1486.58 1020.33 1485.49 1020.78 1484.64 1021.67C1483.81 1022.55 1483.39 1023.68 1483.39 1025.06C1483.39 1026.45 1483.81 1027.59 1484.64 1028.49C1485.49 1029.36 1486.58 1029.8 1487.91 1029.8ZM1507.85 1033.38C1506.32 1033.38 1504.93 1033.03 1503.69 1032.33C1502.48 1031.62 1501.51 1030.65 1500.78 1029.42C1500.08 1028.16 1499.72 1026.71 1499.72 1025.06C1499.72 1023.42 1500.09 1021.98 1500.81 1020.74C1501.54 1019.49 1502.51 1018.5 1503.72 1017.8C1504.96 1017.1 1506.35 1016.74 1507.88 1016.74C1509.4 1016.74 1510.76 1017.1 1511.98 1017.8C1513.22 1018.5 1514.19 1019.49 1514.89 1020.74C1515.62 1021.98 1515.98 1023.42 1515.98 1025.06C1515.98 1026.71 1515.62 1028.16 1514.89 1029.42C1514.19 1030.65 1513.22 1031.62 1511.98 1032.33C1510.74 1033.03 1509.37 1033.38 1507.85 1033.38ZM1507.85 1029.83C1508.92 1029.83 1509.85 1029.44 1510.64 1028.65C1511.43 1027.84 1511.82 1026.64 1511.82 1025.06C1511.82 1023.49 1511.43 1022.3 1510.64 1021.51C1509.85 1020.7 1508.93 1020.3 1507.88 1020.3C1506.8 1020.3 1505.86 1020.7 1505.07 1021.51C1504.3 1022.3 1503.92 1023.49 1503.92 1025.06C1503.92 1026.64 1504.3 1027.84 1505.07 1028.65C1505.86 1029.44 1506.79 1029.83 1507.85 1029.83ZM1526.09 1033C1524.43 1033 1523.09 1032.59 1522.09 1031.78C1521.09 1030.97 1520.59 1029.53 1520.59 1027.46V1020.55H1517.87V1017.13H1520.59L1521.07 1012.87H1524.68V1017.13H1528.97V1020.55H1524.68V1027.5C1524.68 1028.26 1524.84 1028.8 1525.16 1029.1C1525.5 1029.37 1526.08 1029.51 1526.89 1029.51H1528.87V1033H1526.09ZM1532.49 1033V1009.96H1536.58V1019.56C1537.12 1018.69 1537.83 1018 1538.73 1017.51C1539.64 1017 1540.69 1016.74 1541.86 1016.74C1543.82 1016.74 1545.34 1017.36 1546.41 1018.6C1547.49 1019.84 1548.04 1021.65 1548.04 1024.04V1033H1543.97V1024.42C1543.97 1023.06 1543.7 1022.01 1543.14 1021.29C1542.61 1020.56 1541.76 1020.2 1540.58 1020.2C1539.43 1020.2 1538.47 1020.61 1537.7 1021.42C1536.96 1022.23 1536.58 1023.36 1536.58 1024.81V1033H1532.49ZM1559.67 1033.38C1558.07 1033.38 1556.65 1033.04 1555.41 1032.36C1554.17 1031.68 1553.2 1030.72 1552.5 1029.48C1551.8 1028.24 1551.44 1026.81 1551.44 1025.19C1551.44 1023.55 1551.78 1022.09 1552.47 1020.81C1553.17 1019.53 1554.13 1018.54 1555.35 1017.83C1556.58 1017.11 1558.04 1016.74 1559.7 1016.74C1561.26 1016.74 1562.63 1017.09 1563.83 1017.77C1565.02 1018.45 1565.95 1019.39 1566.61 1020.58C1567.29 1021.76 1567.64 1023.07 1567.64 1024.52C1567.64 1024.75 1567.62 1025 1567.6 1025.26C1567.6 1025.51 1567.59 1025.78 1567.57 1026.06H1555.51C1555.59 1027.29 1556.02 1028.26 1556.79 1028.97C1557.58 1029.67 1558.53 1030.02 1559.64 1030.02C1560.47 1030.02 1561.16 1029.84 1561.72 1029.48C1562.29 1029.1 1562.72 1028.61 1563 1028.01H1567.16C1566.86 1029.01 1566.36 1029.93 1565.65 1030.76C1564.97 1031.57 1564.12 1032.21 1563.09 1032.68C1562.09 1033.15 1560.95 1033.38 1559.67 1033.38ZM1559.7 1020.07C1558.7 1020.07 1557.81 1020.36 1557.04 1020.94C1556.28 1021.49 1555.78 1022.34 1555.57 1023.5H1563.48C1563.41 1022.45 1563.03 1021.62 1562.32 1021C1561.62 1020.38 1560.74 1020.07 1559.7 1020.07ZM1577.64 1033.38C1576.23 1033.38 1574.99 1033.16 1573.93 1032.71C1572.86 1032.24 1572.01 1031.6 1571.37 1030.79C1570.73 1029.98 1570.34 1029.04 1570.22 1027.98H1574.34C1574.47 1028.59 1574.81 1029.13 1575.37 1029.58C1575.94 1030 1576.68 1030.22 1577.58 1030.22C1578.47 1030.22 1579.12 1030.03 1579.53 1029.67C1579.95 1029.31 1580.17 1028.89 1580.17 1028.42C1580.17 1027.74 1579.87 1027.28 1579.27 1027.05C1578.67 1026.79 1577.84 1026.55 1576.78 1026.31C1576.09 1026.16 1575.4 1025.98 1574.7 1025.77C1573.99 1025.55 1573.34 1025.29 1572.74 1024.97C1572.17 1024.63 1571.7 1024.2 1571.34 1023.69C1570.97 1023.15 1570.79 1022.5 1570.79 1021.74C1570.79 1020.33 1571.35 1019.14 1572.46 1018.18C1573.59 1017.22 1575.17 1016.74 1577.19 1016.74C1579.07 1016.74 1580.56 1017.18 1581.67 1018.06C1582.8 1018.93 1583.47 1020.14 1583.69 1021.67H1579.82C1579.58 1020.5 1578.7 1019.91 1577.16 1019.91C1576.39 1019.91 1575.79 1020.06 1575.37 1020.36C1574.96 1020.66 1574.76 1021.03 1574.76 1021.48C1574.76 1021.95 1575.07 1022.32 1575.69 1022.6C1576.31 1022.88 1577.13 1023.13 1578.15 1023.37C1579.26 1023.62 1580.27 1023.91 1581.19 1024.23C1582.13 1024.53 1582.88 1024.99 1583.43 1025.61C1583.99 1026.21 1584.26 1027.07 1584.26 1028.2C1584.29 1029.18 1584.03 1030.07 1583.5 1030.86C1582.96 1031.65 1582.19 1032.26 1581.19 1032.71C1580.19 1033.16 1579.01 1033.38 1577.64 1033.38ZM1595.6 1033.38C1594 1033.38 1592.59 1033.04 1591.35 1032.36C1590.11 1031.68 1589.14 1030.72 1588.44 1029.48C1587.73 1028.24 1587.38 1026.81 1587.38 1025.19C1587.38 1023.55 1587.72 1022.09 1588.4 1020.81C1589.11 1019.53 1590.07 1018.54 1591.28 1017.83C1592.52 1017.11 1593.97 1016.74 1595.64 1016.74C1597.19 1016.74 1598.57 1017.09 1599.76 1017.77C1600.96 1018.45 1601.89 1019.39 1602.55 1020.58C1603.23 1021.76 1603.57 1023.07 1603.57 1024.52C1603.57 1024.75 1603.56 1025 1603.54 1025.26C1603.54 1025.51 1603.53 1025.78 1603.51 1026.06H1591.44C1591.53 1027.29 1591.96 1028.26 1592.72 1028.97C1593.51 1029.67 1594.46 1030.02 1595.57 1030.02C1596.4 1030.02 1597.1 1029.84 1597.65 1029.48C1598.23 1029.1 1598.66 1028.61 1598.93 1028.01H1603.09C1602.79 1029.01 1602.29 1029.93 1601.59 1030.76C1600.91 1031.57 1600.05 1032.21 1599.03 1032.68C1598.03 1033.15 1596.88 1033.38 1595.6 1033.38ZM1595.64 1020.07C1594.63 1020.07 1593.75 1020.36 1592.98 1020.94C1592.21 1021.49 1591.72 1022.34 1591.51 1023.5H1599.41C1599.35 1022.45 1598.96 1021.62 1598.26 1021C1597.56 1020.38 1596.68 1020.07 1595.64 1020.07ZM1613.58 1033.38C1612.17 1033.38 1610.93 1033.16 1609.87 1032.71C1608.8 1032.24 1607.95 1031.6 1607.31 1030.79C1606.67 1029.98 1606.28 1029.04 1606.15 1027.98H1610.28C1610.41 1028.59 1610.75 1029.13 1611.31 1029.58C1611.88 1030 1612.62 1030.22 1613.51 1030.22C1614.41 1030.22 1615.06 1030.03 1615.47 1029.67C1615.89 1029.31 1616.11 1028.89 1616.11 1028.42C1616.11 1027.74 1615.81 1027.28 1615.21 1027.05C1614.61 1026.79 1613.78 1026.55 1612.71 1026.31C1612.03 1026.16 1611.34 1025.98 1610.63 1025.77C1609.93 1025.55 1609.28 1025.29 1608.68 1024.97C1608.11 1024.63 1607.64 1024.2 1607.27 1023.69C1606.91 1023.15 1606.73 1022.5 1606.73 1021.74C1606.73 1020.33 1607.28 1019.14 1608.39 1018.18C1609.52 1017.22 1611.1 1016.74 1613.13 1016.74C1615.01 1016.74 1616.5 1017.18 1617.61 1018.06C1618.74 1018.93 1619.41 1020.14 1619.63 1021.67H1615.75C1615.52 1020.5 1614.63 1019.91 1613.1 1019.91C1612.33 1019.91 1611.73 1020.06 1611.31 1020.36C1610.9 1020.66 1610.7 1021.03 1610.7 1021.48C1610.7 1021.95 1611.01 1022.32 1611.63 1022.6C1612.24 1022.88 1613.07 1023.13 1614.09 1023.37C1615.2 1023.62 1616.21 1023.91 1617.13 1024.23C1618.07 1024.53 1618.81 1024.99 1619.37 1025.61C1619.92 1026.21 1620.2 1027.07 1620.2 1028.2C1620.22 1029.18 1619.97 1030.07 1619.43 1030.86C1618.9 1031.65 1618.13 1032.26 1617.13 1032.71C1616.13 1033.16 1614.94 1033.38 1613.58 1033.38Z" fill="black"/>
<path d="M112.129 995V972.6H116.993L124.129 986.808L131.169 972.6H136.033V995H131.937V979.544L125.697 991.8H122.465L116.225 979.544V995H112.129ZM145.755 995.384C144.39 995.384 143.27 995.171 142.395 994.744C141.52 994.296 140.87 993.709 140.443 992.984C140.016 992.259 139.803 991.459 139.803 990.584C139.803 989.112 140.379 987.917 141.531 987C142.683 986.083 144.411 985.624 146.715 985.624H150.747V985.24C150.747 984.152 150.438 983.352 149.819 982.84C149.2 982.328 148.432 982.072 147.515 982.072C146.683 982.072 145.958 982.275 145.339 982.68C144.72 983.064 144.336 983.64 144.187 984.408H140.187C140.294 983.256 140.678 982.253 141.339 981.4C142.022 980.547 142.896 979.896 143.963 979.448C145.03 978.979 146.224 978.744 147.547 978.744C149.808 978.744 151.59 979.309 152.891 980.44C154.192 981.571 154.843 983.171 154.843 985.24V995H151.355L150.971 992.44C150.502 993.293 149.84 993.997 148.987 994.552C148.155 995.107 147.078 995.384 145.755 995.384ZM146.683 992.184C147.856 992.184 148.763 991.8 149.403 991.032C150.064 990.264 150.48 989.315 150.651 988.184H147.163C146.075 988.184 145.296 988.387 144.827 988.792C144.358 989.176 144.123 989.656 144.123 990.232C144.123 990.851 144.358 991.331 144.827 991.672C145.296 992.013 145.915 992.184 146.683 992.184ZM158.752 995V971.96H162.848V985.56L168.48 979.128H173.344L166.848 986.36L174.4 995H169.28L162.848 987.032V995H158.752ZM183.339 995.384C181.739 995.384 180.32 995.043 179.083 994.36C177.846 993.677 176.875 992.717 176.171 991.48C175.467 990.243 175.115 988.813 175.115 987.192C175.115 985.549 175.456 984.088 176.139 982.808C176.843 981.528 177.803 980.536 179.019 979.832C180.256 979.107 181.707 978.744 183.371 978.744C184.928 978.744 186.304 979.085 187.499 979.768C188.694 980.451 189.622 981.389 190.283 982.584C190.966 983.757 191.307 985.069 191.307 986.52C191.307 986.755 191.296 987 191.275 987.256C191.275 987.512 191.264 987.779 191.243 988.056H179.179C179.264 989.293 179.691 990.264 180.459 990.968C181.248 991.672 182.198 992.024 183.307 992.024C184.139 992.024 184.832 991.843 185.387 991.48C185.963 991.096 186.39 990.605 186.667 990.008H190.827C190.528 991.011 190.027 991.928 189.323 992.76C188.64 993.571 187.787 994.211 186.763 994.68C185.76 995.149 184.619 995.384 183.339 995.384ZM183.371 982.072C182.368 982.072 181.483 982.36 180.715 982.936C179.947 983.491 179.456 984.344 179.243 985.496H187.147C187.083 984.451 186.699 983.619 185.995 983C185.291 982.381 184.416 982.072 183.371 982.072ZM211.785 995.384C210.59 995.384 209.545 995.16 208.649 994.712C207.753 994.264 207.028 993.635 206.473 992.824L206.025 995H202.377V971.96H206.473V981.4C206.985 980.696 207.657 980.077 208.489 979.544C209.342 979.011 210.441 978.744 211.785 978.744C213.278 978.744 214.612 979.107 215.785 979.832C216.958 980.557 217.886 981.549 218.569 982.808C219.252 984.067 219.593 985.496 219.593 987.096C219.593 988.696 219.252 990.125 218.569 991.384C217.886 992.621 216.958 993.603 215.785 994.328C214.612 995.032 213.278 995.384 211.785 995.384ZM210.921 991.8C212.222 991.8 213.3 991.363 214.153 990.488C215.006 989.613 215.433 988.483 215.433 987.096C215.433 985.709 215.006 984.568 214.153 983.672C213.3 982.776 212.222 982.328 210.921 982.328C209.598 982.328 208.51 982.776 207.657 983.672C206.825 984.547 206.409 985.677 206.409 987.064C206.409 988.451 206.825 989.592 207.657 990.488C208.51 991.363 209.598 991.8 210.921 991.8ZM230.964 995.384C229.364 995.384 227.945 995.043 226.708 994.36C225.471 993.677 224.5 992.717 223.796 991.48C223.092 990.243 222.74 988.813 222.74 987.192C222.74 985.549 223.081 984.088 223.764 982.808C224.468 981.528 225.428 980.536 226.644 979.832C227.881 979.107 229.332 978.744 230.996 978.744C232.553 978.744 233.929 979.085 235.124 979.768C236.319 980.451 237.247 981.389 237.908 982.584C238.591 983.757 238.932 985.069 238.932 986.52C238.932 986.755 238.921 987 238.9 987.256C238.9 987.512 238.889 987.779 238.868 988.056H226.804C226.889 989.293 227.316 990.264 228.084 990.968C228.873 991.672 229.823 992.024 230.932 992.024C231.764 992.024 232.457 991.843 233.012 991.48C233.588 991.096 234.015 990.605 234.292 990.008H238.452C238.153 991.011 237.652 991.928 236.948 992.76C236.265 993.571 235.412 994.211 234.388 994.68C233.385 995.149 232.244 995.384 230.964 995.384ZM230.996 982.072C229.993 982.072 229.108 982.36 228.34 982.936C227.572 983.491 227.081 984.344 226.868 985.496H234.772C234.708 984.451 234.324 983.619 233.62 983C232.916 982.381 232.041 982.072 230.996 982.072ZM249.168 995C247.504 995 246.17 994.595 245.168 993.784C244.165 992.973 243.664 991.533 243.664 989.464V982.552H240.944V979.128H243.664L244.144 974.872H247.76V979.128H252.048V982.552H247.76V989.496C247.76 990.264 247.92 990.797 248.24 991.096C248.581 991.373 249.157 991.512 249.968 991.512H251.952V995H249.168ZM262.124 995.384C260.716 995.384 259.479 995.16 258.412 994.712C257.346 994.243 256.492 993.603 255.852 992.792C255.212 991.981 254.828 991.043 254.7 989.976H258.828C258.956 990.595 259.298 991.128 259.852 991.576C260.428 992.003 261.164 992.216 262.06 992.216C262.956 992.216 263.607 992.035 264.012 991.672C264.439 991.309 264.652 990.893 264.652 990.424C264.652 989.741 264.354 989.283 263.756 989.048C263.159 988.792 262.327 988.547 261.26 988.312C260.578 988.163 259.884 987.981 259.18 987.768C258.476 987.555 257.826 987.288 257.228 986.968C256.652 986.627 256.183 986.2 255.82 985.688C255.458 985.155 255.276 984.504 255.276 983.736C255.276 982.328 255.831 981.144 256.94 980.184C258.071 979.224 259.65 978.744 261.676 978.744C263.554 978.744 265.047 979.181 266.156 980.056C267.287 980.931 267.959 982.136 268.172 983.672H264.3C264.066 982.499 263.18 981.912 261.644 981.912C260.876 981.912 260.279 982.061 259.852 982.36C259.447 982.659 259.244 983.032 259.244 983.48C259.244 983.949 259.554 984.323 260.172 984.6C260.791 984.877 261.612 985.133 262.636 985.368C263.746 985.624 264.759 985.912 265.676 986.232C266.615 986.531 267.362 986.989 267.916 987.608C268.471 988.205 268.748 989.069 268.748 990.2C268.77 991.181 268.514 992.067 267.98 992.856C267.447 993.645 266.679 994.264 265.676 994.712C264.674 995.16 263.49 995.384 262.124 995.384ZM283.106 995L278.466 979.128H282.53L285.282 990.552L288.482 979.128H293.026L296.226 990.552L299.01 979.128H303.074L298.402 995H294.146L290.754 983.128L287.362 995H283.106ZM307.866 976.664C307.119 976.664 306.501 976.44 306.01 975.992C305.541 975.544 305.306 974.979 305.306 974.296C305.306 973.613 305.541 973.059 306.01 972.632C306.501 972.184 307.119 971.96 307.866 971.96C308.613 971.96 309.221 972.184 309.69 972.632C310.181 973.059 310.426 973.613 310.426 974.296C310.426 974.979 310.181 975.544 309.69 975.992C309.221 976.44 308.613 976.664 307.866 976.664ZM305.818 995V979.128H309.914V995H305.818ZM321.261 995C319.597 995 318.264 994.595 317.261 993.784C316.259 992.973 315.757 991.533 315.757 989.464V982.552H313.037V979.128H315.757L316.237 974.872H319.853V979.128H324.141V982.552H319.853V989.496C319.853 990.264 320.013 990.797 320.333 991.096C320.675 991.373 321.251 991.512 322.061 991.512H324.045V995H321.261ZM327.658 995V971.96H331.754V981.56C332.287 980.685 333.002 980.003 333.898 979.512C334.815 979 335.861 978.744 337.034 978.744C338.997 978.744 340.511 979.363 341.578 980.6C342.666 981.837 343.21 983.651 343.21 986.04V995H339.146V986.424C339.146 985.059 338.869 984.013 338.314 983.288C337.781 982.563 336.927 982.2 335.754 982.2C334.602 982.2 333.642 982.605 332.874 983.416C332.127 984.227 331.754 985.357 331.754 986.808V995H327.658ZM186.239 1033V1010.6H191.103L198.239 1024.81L205.279 1010.6H210.143V1033H206.047V1017.54L199.807 1029.8H196.575L190.335 1017.54V1033H186.239ZM220.985 1033L212.793 1010.6H217.177L223.513 1028.81L229.881 1010.6H234.201L226.009 1033H220.985ZM236.864 1033V1010.6H245.152C246.944 1010.6 248.426 1010.9 249.6 1011.5C250.773 1012.09 251.648 1012.91 252.224 1013.96C252.8 1015.01 253.088 1016.18 253.088 1017.48C253.088 1018.72 252.81 1019.86 252.256 1020.9C251.701 1021.93 250.837 1022.76 249.664 1023.4C248.49 1024.02 246.986 1024.33 245.152 1024.33H240.96V1033H236.864ZM240.96 1021H244.896C246.325 1021 247.349 1020.69 247.968 1020.07C248.608 1019.43 248.928 1018.57 248.928 1017.48C248.928 1016.37 248.608 1015.51 247.968 1014.89C247.349 1014.25 246.325 1013.93 244.896 1013.93H240.96V1021ZM262.765 1033.38C261.357 1033.38 260.12 1033.16 259.053 1032.71C257.986 1032.24 257.133 1031.6 256.493 1030.79C255.853 1029.98 255.469 1029.04 255.341 1027.98H259.469C259.597 1028.59 259.938 1029.13 260.493 1029.58C261.069 1030 261.805 1030.22 262.701 1030.22C263.597 1030.22 264.248 1030.03 264.653 1029.67C265.08 1029.31 265.293 1028.89 265.293 1028.42C265.293 1027.74 264.994 1027.28 264.397 1027.05C263.8 1026.79 262.968 1026.55 261.901 1026.31C261.218 1026.16 260.525 1025.98 259.821 1025.77C259.117 1025.55 258.466 1025.29 257.869 1024.97C257.293 1024.63 256.824 1024.2 256.461 1023.69C256.098 1023.15 255.917 1022.5 255.917 1021.74C255.917 1020.33 256.472 1019.14 257.581 1018.18C258.712 1017.22 260.29 1016.74 262.317 1016.74C264.194 1016.74 265.688 1017.18 266.797 1018.06C267.928 1018.93 268.6 1020.14 268.813 1021.67H264.941C264.706 1020.5 263.821 1019.91 262.285 1019.91C261.517 1019.91 260.92 1020.06 260.493 1020.36C260.088 1020.66 259.885 1021.03 259.885 1021.48C259.885 1021.95 260.194 1022.32 260.813 1022.6C261.432 1022.88 262.253 1023.13 263.277 1023.37C264.386 1023.62 265.4 1023.91 266.317 1024.23C267.256 1024.53 268.002 1024.99 268.557 1025.61C269.112 1026.21 269.389 1027.07 269.389 1028.2C269.41 1029.18 269.154 1030.07 268.621 1030.86C268.088 1031.65 267.32 1032.26 266.317 1032.71C265.314 1033.16 264.13 1033.38 262.765 1033.38Z" fill="black"/>
<path d="M782.543 1337.38C780.9 1337.38 779.449 1337.11 778.191 1336.55C776.932 1335.98 775.94 1335.17 775.215 1334.12C774.489 1333.05 774.116 1331.76 774.095 1330.25H778.415C778.457 1331.29 778.831 1332.18 779.535 1332.9C780.26 1333.61 781.252 1333.96 782.511 1333.96C783.599 1333.96 784.463 1333.7 785.103 1333.19C785.743 1332.66 786.063 1331.95 786.063 1331.08C786.063 1330.16 785.775 1329.45 785.199 1328.94C784.644 1328.42 783.897 1328.01 782.959 1327.69C782.02 1327.37 781.017 1327.03 779.951 1326.66C778.223 1326.07 776.9 1325.3 775.983 1324.36C775.087 1323.42 774.639 1322.17 774.639 1320.62C774.617 1319.29 774.927 1318.16 775.567 1317.22C776.228 1316.26 777.124 1315.53 778.255 1315.02C779.385 1314.48 780.687 1314.22 782.159 1314.22C783.652 1314.22 784.964 1314.48 786.095 1315.02C787.247 1315.55 788.143 1316.3 788.783 1317.26C789.444 1318.22 789.796 1319.36 789.839 1320.68H785.455C785.433 1319.89 785.124 1319.2 784.527 1318.6C783.951 1317.98 783.14 1317.67 782.095 1317.67C781.199 1317.65 780.441 1317.87 779.823 1318.34C779.225 1318.79 778.927 1319.45 778.927 1320.33C778.927 1321.07 779.161 1321.67 779.631 1322.12C780.1 1322.55 780.74 1322.91 781.551 1323.21C782.361 1323.51 783.289 1323.83 784.335 1324.17C785.444 1324.55 786.457 1325 787.375 1325.51C788.292 1326.02 789.028 1326.71 789.583 1327.56C790.137 1328.39 790.415 1329.47 790.415 1330.79C790.415 1331.97 790.116 1333.05 789.519 1334.06C788.921 1335.06 788.036 1335.87 786.863 1336.49C785.689 1337.09 784.249 1337.38 782.543 1337.38ZM793.893 1344.04V1321.13H797.541L797.989 1323.4C798.501 1322.7 799.173 1322.08 800.005 1321.54C800.858 1321.01 801.957 1320.74 803.301 1320.74C804.794 1320.74 806.127 1321.11 807.301 1321.83C808.474 1322.56 809.402 1323.55 810.085 1324.81C810.767 1326.07 811.109 1327.5 811.109 1329.1C811.109 1330.7 810.767 1332.13 810.085 1333.38C809.402 1334.62 808.474 1335.6 807.301 1336.33C806.127 1337.03 804.794 1337.38 803.301 1337.38C802.106 1337.38 801.061 1337.16 800.165 1336.71C799.269 1336.26 798.543 1335.63 797.989 1334.82V1344.04H793.893ZM802.437 1333.8C803.738 1333.8 804.815 1333.36 805.669 1332.49C806.522 1331.61 806.949 1330.48 806.949 1329.1C806.949 1327.71 806.522 1326.57 805.669 1325.67C804.815 1324.78 803.738 1324.33 802.437 1324.33C801.114 1324.33 800.026 1324.78 799.173 1325.67C798.341 1326.55 797.925 1327.68 797.925 1329.06C797.925 1330.45 798.341 1331.59 799.173 1332.49C800.026 1333.36 801.114 1333.8 802.437 1333.8ZM822.48 1337.38C820.88 1337.38 819.461 1337.04 818.224 1336.36C816.986 1335.68 816.016 1334.72 815.312 1333.48C814.608 1332.24 814.256 1330.81 814.256 1329.19C814.256 1327.55 814.597 1326.09 815.28 1324.81C815.984 1323.53 816.944 1322.54 818.16 1321.83C819.397 1321.11 820.848 1320.74 822.512 1320.74C824.069 1320.74 825.445 1321.09 826.64 1321.77C827.834 1322.45 828.762 1323.39 829.424 1324.58C830.106 1325.76 830.448 1327.07 830.448 1328.52C830.448 1328.75 830.437 1329 830.416 1329.26C830.416 1329.51 830.405 1329.78 830.384 1330.06H818.32C818.405 1331.29 818.832 1332.26 819.6 1332.97C820.389 1333.67 821.338 1334.02 822.448 1334.02C823.28 1334.02 823.973 1333.84 824.528 1333.48C825.104 1333.1 825.53 1332.61 825.808 1332.01H829.968C829.669 1333.01 829.168 1333.93 828.464 1334.76C827.781 1335.57 826.928 1336.21 825.904 1336.68C824.901 1337.15 823.76 1337.38 822.48 1337.38ZM822.512 1324.07C821.509 1324.07 820.624 1324.36 819.856 1324.94C819.088 1325.49 818.597 1326.34 818.384 1327.5H826.288C826.224 1326.45 825.84 1325.62 825.136 1325C824.432 1324.38 823.557 1324.07 822.512 1324.07ZM839.365 1337.38C837.999 1337.38 836.879 1337.17 836.005 1336.74C835.13 1336.3 834.479 1335.71 834.053 1334.98C833.626 1334.26 833.413 1333.46 833.413 1332.58C833.413 1331.11 833.989 1329.92 835.141 1329C836.293 1328.08 838.021 1327.62 840.325 1327.62H844.357V1327.24C844.357 1326.15 844.047 1325.35 843.429 1324.84C842.81 1324.33 842.042 1324.07 841.125 1324.07C840.293 1324.07 839.567 1324.27 838.949 1324.68C838.33 1325.06 837.946 1325.64 837.797 1326.41H833.797C833.903 1325.26 834.287 1324.25 834.949 1323.4C835.631 1322.55 836.506 1321.9 837.573 1321.45C838.639 1320.98 839.834 1320.74 841.157 1320.74C843.418 1320.74 845.199 1321.31 846.501 1322.44C847.802 1323.57 848.453 1325.17 848.453 1327.24V1337H844.965L844.581 1334.44C844.111 1335.29 843.45 1336 842.597 1336.55C841.765 1337.11 840.687 1337.38 839.365 1337.38ZM840.293 1334.18C841.466 1334.18 842.373 1333.8 843.013 1333.03C843.674 1332.26 844.09 1331.31 844.261 1330.18H840.773C839.685 1330.18 838.906 1330.39 838.437 1330.79C837.967 1331.18 837.733 1331.66 837.733 1332.23C837.733 1332.85 837.967 1333.33 838.437 1333.67C838.906 1334.01 839.525 1334.18 840.293 1334.18ZM852.361 1337V1313.96H856.457V1327.56L862.089 1321.13H866.953L860.457 1328.36L868.009 1337H862.889L856.457 1329.03V1337H852.361ZM881.278 1337L876.638 1321.13H880.702L883.454 1332.55L886.654 1321.13H891.198L894.398 1332.55L897.182 1321.13H901.246L896.574 1337H892.318L888.926 1325.13L885.534 1337H881.278ZM906.038 1318.66C905.291 1318.66 904.673 1318.44 904.182 1317.99C903.713 1317.54 903.478 1316.98 903.478 1316.3C903.478 1315.61 903.713 1315.06 904.182 1314.63C904.673 1314.18 905.291 1313.96 906.038 1313.96C906.785 1313.96 907.393 1314.18 907.862 1314.63C908.353 1315.06 908.598 1315.61 908.598 1316.3C908.598 1316.98 908.353 1317.54 907.862 1317.99C907.393 1318.44 906.785 1318.66 906.038 1318.66ZM903.99 1337V1321.13H908.086V1337H903.99ZM919.433 1337C917.769 1337 916.436 1336.59 915.433 1335.78C914.431 1334.97 913.929 1333.53 913.929 1331.46V1324.55H911.209V1321.13H913.929L914.409 1316.87H918.025V1321.13H922.313V1324.55H918.025V1331.5C918.025 1332.26 918.185 1332.8 918.505 1333.1C918.847 1333.37 919.423 1333.51 920.233 1333.51H922.217V1337H919.433ZM925.83 1337V1313.96H929.926V1323.56C930.459 1322.69 931.174 1322 932.07 1321.51C932.987 1321 934.033 1320.74 935.206 1320.74C937.169 1320.74 938.683 1321.36 939.75 1322.6C940.838 1323.84 941.382 1325.65 941.382 1328.04V1337H937.318V1328.42C937.318 1327.06 937.041 1326.01 936.486 1325.29C935.953 1324.56 935.099 1324.2 933.926 1324.2C932.774 1324.2 931.814 1324.61 931.046 1325.42C930.299 1326.23 929.926 1327.36 929.926 1328.81V1337H925.83ZM953.66 1337V1324.55H951.484V1321.13H953.66V1319.27C953.66 1317.35 954.14 1315.99 955.1 1315.18C956.081 1314.37 957.404 1313.96 959.068 1313.96H960.828V1317.45H959.708C959.004 1317.45 958.502 1317.59 958.204 1317.86C957.905 1318.14 957.756 1318.61 957.756 1319.27V1321.13H967.996V1337H963.9V1324.55H957.756V1337H953.66ZM965.98 1318.86C965.233 1318.86 964.614 1318.63 964.124 1318.18C963.654 1317.74 963.42 1317.17 963.42 1316.49C963.42 1315.81 963.654 1315.25 964.124 1314.82C964.614 1314.38 965.233 1314.15 965.98 1314.15C966.726 1314.15 967.334 1314.38 967.804 1314.82C968.294 1315.25 968.54 1315.81 968.54 1316.49C968.54 1317.17 968.294 1317.74 967.804 1318.18C967.334 1318.63 966.726 1318.86 965.98 1318.86ZM976.618 1337L970.794 1321.13H975.082L979.114 1333.13L983.146 1321.13H987.434L981.578 1337H976.618ZM996.948 1337.38C995.348 1337.38 993.93 1337.04 992.692 1336.36C991.455 1335.68 990.484 1334.72 989.78 1333.48C989.076 1332.24 988.724 1330.81 988.724 1329.19C988.724 1327.55 989.066 1326.09 989.748 1324.81C990.452 1323.53 991.412 1322.54 992.628 1321.83C993.866 1321.11 995.316 1320.74 996.98 1320.74C998.538 1320.74 999.914 1321.09 1001.11 1321.77C1002.3 1322.45 1003.23 1323.39 1003.89 1324.58C1004.57 1325.76 1004.92 1327.07 1004.92 1328.52C1004.92 1328.75 1004.91 1329 1004.88 1329.26C1004.88 1329.51 1004.87 1329.78 1004.85 1330.06H992.788C992.874 1331.29 993.3 1332.26 994.068 1332.97C994.858 1333.67 995.807 1334.02 996.916 1334.02C997.748 1334.02 998.442 1333.84 998.996 1333.48C999.572 1333.1 999.999 1332.61 1000.28 1332.01H1004.44C1004.14 1333.01 1003.64 1333.93 1002.93 1334.76C1002.25 1335.57 1001.4 1336.21 1000.37 1336.68C999.37 1337.15 998.228 1337.38 996.948 1337.38ZM996.98 1324.07C995.978 1324.07 995.092 1324.36 994.324 1324.94C993.556 1325.49 993.066 1326.34 992.852 1327.5H1000.76C1000.69 1326.45 1000.31 1325.62 999.604 1325C998.9 1324.38 998.026 1324.07 996.98 1324.07ZM847.644 1375.38C846.45 1375.38 845.404 1375.16 844.508 1374.71C843.612 1374.26 842.887 1373.63 842.332 1372.82L841.884 1375H838.236V1351.96H842.332V1361.4C842.844 1360.7 843.516 1360.08 844.348 1359.54C845.202 1359.01 846.3 1358.74 847.644 1358.74C849.138 1358.74 850.471 1359.11 851.644 1359.83C852.818 1360.56 853.746 1361.55 854.428 1362.81C855.111 1364.07 855.452 1365.5 855.452 1367.1C855.452 1368.7 855.111 1370.13 854.428 1371.38C853.746 1372.62 852.818 1373.6 851.644 1374.33C850.471 1375.03 849.138 1375.38 847.644 1375.38ZM846.78 1371.8C848.082 1371.8 849.159 1371.36 850.012 1370.49C850.866 1369.61 851.292 1368.48 851.292 1367.1C851.292 1365.71 850.866 1364.57 850.012 1363.67C849.159 1362.78 848.082 1362.33 846.78 1362.33C845.458 1362.33 844.37 1362.78 843.516 1363.67C842.684 1364.55 842.268 1365.68 842.268 1367.06C842.268 1368.45 842.684 1369.59 843.516 1370.49C844.37 1371.36 845.458 1371.8 846.78 1371.8ZM865.063 1375.38C863.079 1375.38 861.543 1374.77 860.455 1373.53C859.389 1372.29 858.855 1370.48 858.855 1368.09V1359.13H862.919V1367.7C862.919 1369.07 863.197 1370.11 863.751 1370.84C864.306 1371.57 865.181 1371.93 866.375 1371.93C867.506 1371.93 868.434 1371.52 869.159 1370.71C869.906 1369.9 870.279 1368.77 870.279 1367.32V1359.13H874.375V1375H870.759L870.439 1372.31C869.949 1373.25 869.234 1374 868.295 1374.55C867.378 1375.11 866.301 1375.38 865.063 1375.38ZM880.564 1382.04L884.244 1373.94H883.284L877.108 1359.13H881.556L886.004 1370.3L890.644 1359.13H894.996L884.916 1382.04H880.564ZM904.011 1375.38C902.411 1375.38 900.992 1375.04 899.755 1374.36C898.517 1373.68 897.547 1372.72 896.843 1371.48C896.139 1370.24 895.787 1368.81 895.787 1367.19C895.787 1365.55 896.128 1364.09 896.811 1362.81C897.515 1361.53 898.475 1360.54 899.691 1359.83C900.928 1359.11 902.379 1358.74 904.043 1358.74C905.6 1358.74 906.976 1359.09 908.171 1359.77C909.365 1360.45 910.293 1361.39 910.955 1362.58C911.637 1363.76 911.979 1365.07 911.979 1366.52C911.979 1366.75 911.968 1367 911.947 1367.26C911.947 1367.51 911.936 1367.78 911.915 1368.06H899.851C899.936 1369.29 900.363 1370.26 901.131 1370.97C901.92 1371.67 902.869 1372.02 903.979 1372.02C904.811 1372.02 905.504 1371.84 906.059 1371.48C906.635 1371.1 907.061 1370.61 907.339 1370.01H911.499C911.2 1371.01 910.699 1371.93 909.995 1372.76C909.312 1373.57 908.459 1374.21 907.435 1374.68C906.432 1375.15 905.291 1375.38 904.011 1375.38ZM904.043 1362.07C903.04 1362.07 902.155 1362.36 901.387 1362.94C900.619 1363.49 900.128 1364.34 899.915 1365.5H907.819C907.755 1364.45 907.371 1363.62 906.667 1363C905.963 1362.38 905.088 1362.07 904.043 1362.07ZM915.424 1375V1359.13H919.072L919.456 1362.1C920.032 1361.08 920.81 1360.27 921.792 1359.67C922.794 1359.05 923.968 1358.74 925.312 1358.74V1363.06H924.16C923.264 1363.06 922.464 1363.2 921.76 1363.48C921.056 1363.76 920.501 1364.24 920.096 1364.92C919.712 1365.6 919.52 1366.55 919.52 1367.77V1375H915.424ZM934.671 1375.38C933.263 1375.38 932.026 1375.16 930.959 1374.71C929.893 1374.24 929.039 1373.6 928.399 1372.79C927.759 1371.98 927.375 1371.04 927.247 1369.98H931.375C931.503 1370.59 931.845 1371.13 932.399 1371.58C932.975 1372 933.711 1372.22 934.607 1372.22C935.503 1372.22 936.154 1372.03 936.559 1371.67C936.986 1371.31 937.199 1370.89 937.199 1370.42C937.199 1369.74 936.901 1369.28 936.303 1369.05C935.706 1368.79 934.874 1368.55 933.807 1368.31C933.125 1368.16 932.431 1367.98 931.727 1367.77C931.023 1367.55 930.373 1367.29 929.775 1366.97C929.199 1366.63 928.73 1366.2 928.367 1365.69C928.005 1365.15 927.823 1364.5 927.823 1363.74C927.823 1362.33 928.378 1361.14 929.487 1360.18C930.618 1359.22 932.197 1358.74 934.223 1358.74C936.101 1358.74 937.594 1359.18 938.703 1360.06C939.834 1360.93 940.506 1362.14 940.719 1363.67H936.847C936.613 1362.5 935.727 1361.91 934.191 1361.91C933.423 1361.91 932.826 1362.06 932.399 1362.36C931.994 1362.66 931.791 1363.03 931.791 1363.48C931.791 1363.95 932.101 1364.32 932.719 1364.6C933.338 1364.88 934.159 1365.13 935.183 1365.37C936.293 1365.62 937.306 1365.91 938.223 1366.23C939.162 1366.53 939.909 1366.99 940.463 1367.61C941.018 1368.21 941.295 1369.07 941.295 1370.2C941.317 1371.18 941.061 1372.07 940.527 1372.86C939.994 1373.65 939.226 1374.26 938.223 1374.71C937.221 1375.16 936.037 1375.38 934.671 1375.38Z" fill="black"/>
<path d="M1293.16 187.194C1293.44 187.47 1293.66 187.793 1293.82 188.139C1293.97 188.485 1294.05 188.846 1294.05 189.194L1294.02 207.134C1294.03 207.674 1293.84 208.16 1293.49 208.507C1293.15 208.853 1292.66 209.04 1292.12 209.036L1273.87 208.75C1273.25 208.742 1272.6 208.482 1272.07 208.028C1271.55 207.574 1271.18 206.964 1271.06 206.331C1270.93 205.698 1271.06 205.095 1271.41 204.654C1271.76 204.212 1272.31 203.969 1272.93 203.978L1289.24 204.239L1289.26 188.203C1289.25 187.757 1289.38 187.345 1289.61 187.017C1289.85 186.689 1290.2 186.458 1290.61 186.352C1291.02 186.246 1291.48 186.268 1291.93 186.418C1292.38 186.567 1292.81 186.836 1293.16 187.194Z" fill="#C4C4C4"/>
<path d="M1569.65 693.045C1569.65 693.437 1569.58 693.824 1569.45 694.178C1569.31 694.532 1569.11 694.843 1568.87 695.09L1556.16 707.755C1555.78 708.14 1555.31 708.351 1554.82 708.351C1554.33 708.351 1553.85 708.14 1553.47 707.755L1540.77 694.644C1540.33 694.199 1540.06 693.56 1540.01 692.867C1539.96 692.173 1540.13 691.483 1540.49 690.947C1540.85 690.412 1541.37 690.075 1541.93 690.011C1542.49 689.947 1543.04 690.162 1543.48 690.607L1554.83 702.327L1566.18 691C1566.49 690.679 1566.87 690.476 1567.27 690.413C1567.67 690.35 1568.08 690.431 1568.44 690.647C1568.81 690.862 1569.12 691.202 1569.33 691.627C1569.55 692.052 1569.66 692.544 1569.65 693.045Z" fill="#C4C4C4"/>
<path d="M1333.64 1237.32C1333.37 1237.6 1333.05 1237.83 1332.7 1237.98C1332.35 1238.13 1331.99 1238.22 1331.64 1238.22L1313.7 1238.19C1313.16 1238.19 1312.68 1238 1312.33 1237.66C1311.98 1237.31 1311.8 1236.83 1311.8 1236.28L1312.09 1218.03C1312.1 1217.41 1312.36 1216.76 1312.81 1216.24C1313.26 1215.71 1313.87 1215.34 1314.51 1215.22C1315.14 1215.1 1315.74 1215.22 1316.18 1215.57C1316.63 1215.92 1316.87 1216.47 1316.86 1217.09L1316.6 1233.4L1332.63 1233.42C1333.08 1233.42 1333.49 1233.54 1333.82 1233.78C1334.15 1234.02 1334.38 1234.36 1334.49 1234.77C1334.59 1235.18 1334.57 1235.64 1334.42 1236.09C1334.27 1236.55 1334 1236.97 1333.64 1237.32Z" fill="#C4C4C4"/>
<path d="M512.491 1273.95C512.213 1273.68 511.989 1273.35 511.834 1273.01C511.68 1272.66 511.6 1272.3 511.599 1271.95L511.629 1254.01C511.624 1253.47 511.811 1252.99 512.158 1252.64C512.505 1252.29 512.99 1252.11 513.531 1252.11L531.786 1252.4C532.406 1252.41 533.051 1252.67 533.578 1253.12C534.104 1253.57 534.47 1254.18 534.595 1254.82C534.719 1255.45 534.592 1256.05 534.241 1256.49C533.89 1256.93 533.345 1257.18 532.724 1257.17L516.41 1256.91L516.393 1272.94C516.4 1273.39 516.276 1273.8 516.037 1274.13C515.797 1274.46 515.452 1274.69 515.041 1274.8C514.631 1274.9 514.172 1274.88 513.72 1274.73C513.268 1274.58 512.842 1274.31 512.491 1273.95Z" fill="#C4C4C4"/>
<path d="M235 720.306C234.999 719.914 235.069 719.527 235.205 719.173C235.34 718.819 235.538 718.508 235.784 718.261L248.49 705.596C248.869 705.211 249.345 705 249.835 705C250.326 705 250.801 705.211 251.18 705.596L263.887 718.707C264.319 719.152 264.591 719.791 264.643 720.485C264.695 721.178 264.522 721.868 264.162 722.404C263.803 722.939 263.286 723.276 262.726 723.34C262.166 723.404 261.609 723.19 261.176 722.744L249.825 711.024L238.473 722.351C238.163 722.672 237.784 722.875 237.383 722.938C236.981 723.001 236.574 722.92 236.208 722.705C235.843 722.489 235.535 722.149 235.321 721.724C235.107 721.299 234.995 720.807 235 720.306Z" fill="#C4C4C4"/>
<path d="M491.153 205.823C491.429 205.545 491.752 205.321 492.098 205.166C492.445 205.012 492.805 204.932 493.153 204.931L511.093 204.961C511.634 204.956 512.119 205.143 512.466 205.49C512.813 205.837 513 206.322 512.995 206.863L512.71 225.118C512.701 225.738 512.441 226.383 511.987 226.91C511.534 227.436 510.923 227.802 510.29 227.927C509.658 228.051 509.054 227.924 508.613 227.573C508.172 227.222 507.929 226.677 507.938 226.056L508.199 209.742L492.163 209.725C491.716 209.732 491.305 209.608 490.976 209.369C490.648 209.129 490.417 208.784 490.311 208.373C490.205 207.963 490.228 207.504 490.377 207.052C490.526 206.6 490.795 206.174 491.153 205.823Z" fill="#C4C4C4"/>
<path d="M660.933 637.2H605.893V646.864H627.653V682H639.173V646.864H660.933V637.2ZM697.617 643.664C688.465 643.664 681.041 646.672 675.665 650.896V630.8H664.721V682H675.665V660.88C679.057 656.912 686.993 653.136 694.353 653.136C703.377 653.136 706.065 657.296 706.065 665.296V682H717.073L717.201 661.136C717.073 647.248 707.665 643.664 697.617 643.664ZM722.283 630.8V640.336H733.227V630.8H722.283ZM722.283 644.304V682H733.227V644.304H722.283ZM737.393 668.752C737.393 680.784 750.833 682.64 765.361 682.64C779.889 682.64 789.489 680.784 789.489 670.16C789.489 660.112 779.441 659.728 764.721 658.64C751.729 657.68 749.745 657.296 749.745 654.928C749.745 652.752 752.689 651.984 763.057 651.984C773.233 651.984 777.201 652.752 777.201 655.888H788.209C788.209 645.52 777.905 643.664 763.697 643.664C750.257 643.664 738.737 645.52 738.737 655.376C738.737 664.464 746.865 665.744 763.441 666.704C776.689 667.536 778.481 667.728 778.481 670.608C778.481 673.552 776.561 674.32 764.721 674.32C752.497 674.32 748.337 672.784 748.337 668.752H737.393ZM823.596 630.8V640.336H834.54V630.8H823.596ZM823.596 644.304V682H834.54V644.304H823.596ZM838.706 668.752C838.706 680.784 852.146 682.64 866.674 682.64C881.202 682.64 890.802 680.784 890.802 670.16C890.802 660.112 880.754 659.728 866.034 658.64C853.042 657.68 851.058 657.296 851.058 654.928C851.058 652.752 854.002 651.984 864.37 651.984C874.546 651.984 878.514 652.752 878.514 655.888H889.522C889.522 645.52 879.218 643.664 865.01 643.664C851.57 643.664 840.05 645.52 840.05 655.376C840.05 664.464 848.178 665.744 864.754 666.704C878.002 667.536 879.794 667.728 879.794 670.608C879.794 673.552 877.874 674.32 866.034 674.32C853.81 674.32 849.65 672.784 849.65 668.752H838.706ZM997.292 644.304L984.94 673.36L973.42 644.304H960.364L948.844 673.424L936.492 644.304H924.268L941.228 682H955.82L966.892 655.76L977.964 682H992.556L1009.52 644.304H997.292ZM1045.18 643.664C1036.03 643.664 1028.6 646.672 1023.23 650.896V630.8H1012.28V682H1023.23V660.88C1026.62 656.912 1034.56 653.136 1041.92 653.136C1050.94 653.136 1053.63 657.296 1053.63 665.296V682H1064.64L1064.76 661.136C1064.64 647.248 1055.23 643.664 1045.18 643.664ZM1094.82 643.664C1086.95 643.664 1079.4 645.072 1071.72 647.568L1075.62 655.568C1083.36 653.264 1089.38 652.816 1094.31 652.816C1099.43 652.816 1108.64 653.392 1108.64 660.56C1103.72 658.896 1097.76 657.872 1091.3 657.872C1079.33 657.872 1068.58 660.944 1068.58 670.736C1068.58 679.248 1075.17 682.64 1085.73 682.64C1094.63 682.64 1101.99 680.592 1108.64 677.328V682H1119.65V662.992C1119.52 648.72 1110.56 643.664 1094.82 643.664ZM1108.64 670.288C1103.01 672.72 1094.82 674.576 1088.87 674.576C1083.17 674.576 1079.52 674.256 1079.52 670.288C1079.52 666.448 1084.45 665.04 1092.64 665.04C1099.62 665.04 1104.8 666.128 1108.64 667.344V670.288ZM1160.11 653.456V644.304H1142.26V633.36L1131.25 636.496V644.304H1121.33V653.456H1131.25V670.672C1131.25 678.992 1137.52 682.64 1147.25 682.64C1152.31 682.64 1156.47 682.32 1160.11 681.68V672.848C1155.7 673.488 1153.78 673.488 1150.32 673.488C1143.67 673.488 1142.26 671.632 1142.26 664.336V653.456H1160.11ZM817.386 721.304L805.034 750.36L793.514 721.304H780.458L768.938 750.424L756.586 721.304H744.362L761.322 759H775.914L786.986 732.76L798.058 759H812.65L829.61 721.304H817.386ZM853.147 750.744C845.851 750.744 840.091 748.76 838.875 742.744H879.579C879.579 725.592 868.123 720.664 853.787 720.664C838.491 720.664 827.674 726.296 827.674 740.184C827.674 754.008 838.811 759.64 853.147 759.64C867.099 759.64 876.443 755.096 878.939 745.496H868.059C865.307 749.336 860.699 750.744 853.147 750.744ZM853.723 728.984C860.635 728.984 866.011 730.456 867.867 735.768H839.259C840.987 730.456 846.235 728.984 853.723 728.984ZM954.33 707.8V727.192C950.234 722.904 943.642 720.664 935.514 720.664C923.418 720.664 913.049 725.784 913.049 740.184C913.049 754.584 923.418 759.64 935.514 759.64C943.642 759.64 950.234 757.4 954.33 753.112V759H965.274V707.8H954.33ZM939.162 750.488C929.37 750.488 924.058 747.608 924.058 740.184C924.058 732.696 929.37 729.816 939.162 729.816C948.954 729.816 954.33 732.696 954.33 740.184C954.33 747.608 948.954 750.488 939.162 750.488ZM995.537 759.64C1011.09 759.64 1021.65 754.008 1021.65 740.184C1021.65 726.296 1011.09 720.664 995.537 720.664C979.921 720.664 969.424 726.296 969.424 740.184C969.424 754.008 979.921 759.64 995.537 759.64ZM995.537 750.488C985.361 750.488 980.369 747.992 980.369 740.184C980.369 732.312 985.361 729.816 995.537 729.816C1005.65 729.816 1010.64 732.312 1010.64 740.184C1010.64 747.992 1005.65 750.488 995.537 750.488Z" fill="white"/>
<defs>
<filter id="filter0_d_198_2" x="662" y="0" width="455" height="313" filterUnits="userSpaceOnUse" color-interpolation-filters="sRGB">
<feFlood flood-opacity="0" result="BackgroundImageFix"/>
<feColorMatrix in="SourceAlpha" type="matrix" values="0 0 0 0 0 0 0 0 0 0 0 0 0 0 0 0 0 0 127 0" result="hardAlpha"/>
<feOffset/>
<feGaussianBlur stdDeviation="10.5"/>
<feComposite in2="hardAlpha" operator="out"/>
<feColorMatrix type="matrix" values="0 0 0 0 0 0 0 0 0 0 0 0 0 0 0 0 0 0 0.13 0"/>
<feBlend mode="normal" in2="BackgroundImageFix" result="effect1_dropShadow_198_2"/>
<feBlend mode="normal" in="SourceGraphic" in2="effect1_dropShadow_198_2" result="shape"/>
</filter>
<filter id="filter1_d_198_2" x="1313" y="305" width="455" height="313" filterUnits="userSpaceOnUse" color-interpolation-filters="sRGB">
<feFlood flood-opacity="0" result="BackgroundImageFix"/>
<feColorMatrix in="SourceAlpha" type="matrix" values="0 0 0 0 0 0 0 0 0 0 0 0 0 0 0 0 0 0 127 0" result="hardAlpha"/>
<feOffset/>
<feGaussianBlur stdDeviation="10.5"/>
<feComposite in2="hardAlpha" operator="out"/>
<feColorMatrix type="matrix" values="0 0 0 0 0 0 0 0 0 0 0 0 0 0 0 0 0 0 0.13 0"/>
<feBlend mode="normal" in2="BackgroundImageFix" result="effect1_dropShadow_198_2"/>
<feBlend mode="normal" in="SourceGraphic" in2="effect1_dropShadow_198_2" result="shape"/>
</filter>
<filter id="filter2_d_198_2" x="10" y="305" width="455" height="313" filterUnits="userSpaceOnUse" color-interpolation-filters="sRGB">
<feFlood flood-opacity="0" result="BackgroundImageFix"/>
<feColorMatrix in="SourceAlpha" type="matrix" values="0 0 0 0 0 0 0 0 0 0 0 0 0 0 0 0 0 0 127 0" result="hardAlpha"/>
<feOffset/>
<feGaussianBlur stdDeviation="10.5"/>
<feComposite in2="hardAlpha" operator="out"/>
<feColorMatrix type="matrix" values="0 0 0 0 0 0 0 0 0 0 0 0 0 0 0 0 0 0 0.13 0"/>
<feBlend mode="normal" in2="BackgroundImageFix" result="effect1_dropShadow_198_2"/>
<feBlend mode="normal" in="SourceGraphic" in2="effect1_dropShadow_198_2" result="shape"/>
</filter>
<filter id="filter3_d_198_2" x="1303" y="809" width="455" height="313" filterUnits="userSpaceOnUse" color-interpolation-filters="sRGB">
<feFlood flood-opacity="0" result="BackgroundImageFix"/>
<feColorMatrix in="SourceAlpha" type="matrix" values="0 0 0 0 0 0 0 0 0 0 0 0 0 0 0 0 0 0 127 0" result="hardAlpha"/>
<feOffset/>
<feGaussianBlur stdDeviation="10.5"/>
<feComposite in2="hardAlpha" operator="out"/>
<feColorMatrix type="matrix" values="0 0 0 0 0 0 0 0 0 0 0 0 0 0 0 0 0 0 0.13 0"/>
<feBlend mode="normal" in2="BackgroundImageFix" result="effect1_dropShadow_198_2"/>
<feBlend mode="normal" in="SourceGraphic" in2="effect1_dropShadow_198_2" result="shape"/>
</filter>
<filter id="filter4_d_198_2" x="0" y="809" width="455" height="313" filterUnits="userSpaceOnUse" color-interpolation-filters="sRGB">
<feFlood flood-opacity="0" result="BackgroundImageFix"/>
<feColorMatrix in="SourceAlpha" type="matrix" values="0 0 0 0 0 0 0 0 0 0 0 0 0 0 0 0 0 0 127 0" result="hardAlpha"/>
<feOffset/>
<feGaussianBlur stdDeviation="10.5"/>
<feComposite in2="hardAlpha" operator="out"/>
<feColorMatrix type="matrix" values="0 0 0 0 0 0 0 0 0 0 0 0 0 0 0 0 0 0 0.13 0"/>
<feBlend mode="normal" in2="BackgroundImageFix" result="effect1_dropShadow_198_2"/>
<feBlend mode="normal" in="SourceGraphic" in2="effect1_dropShadow_198_2" result="shape"/>
</filter>
<filter id="filter5_d_198_2" x="662" y="1151" width="455" height="313" filterUnits="userSpaceOnUse" color-interpolation-filters="sRGB">
<feFlood flood-opacity="0" result="BackgroundImageFix"/>
<feColorMatrix in="SourceAlpha" type="matrix" values="0 0 0 0 0 0 0 0 0 0 0 0 0 0 0 0 0 0 127 0" result="hardAlpha"/>
<feOffset/>
<feGaussianBlur stdDeviation="10.5"/>
<feComposite in2="hardAlpha" operator="out"/>
<feColorMatrix type="matrix" values="0 0 0 0 0 0 0 0 0 0 0 0 0 0 0 0 0 0 0.13 0"/>
<feBlend mode="normal" in2="BackgroundImageFix" result="effect1_dropShadow_198_2"/>
<feBlend mode="normal" in="SourceGraphic" in2="effect1_dropShadow_198_2" result="shape"/>
</filter>
<filter id="filter6_d_198_2" x="846" y="46" width="87" height="87" filterUnits="userSpaceOnUse" color-interpolation-filters="sRGB">
<feFlood flood-opacity="0" result="BackgroundImageFix"/>
<feColorMatrix in="SourceAlpha" type="matrix" values="0 0 0 0 0 0 0 0 0 0 0 0 0 0 0 0 0 0 127 0" result="hardAlpha"/>
<feMorphology radius="3" operator="erode" in="SourceAlpha" result="effect1_dropShadow_198_2"/>
<feOffset/>
<feGaussianBlur stdDeviation="5.5"/>
<feComposite in2="hardAlpha" operator="out"/>
<feColorMatrix type="matrix" values="0 0 0 0 0 0 0 0 0 0 0 0 0 0 0 0 0 0 0.25 0"/>
<feBlend mode="normal" in2="BackgroundImageFix" result="effect1_dropShadow_198_2"/>
<feBlend mode="normal" in="SourceGraphic" in2="effect1_dropShadow_198_2" result="shape"/>
</filter>
<filter id="filter7_d_198_2" x="1497" y="351" width="87" height="87" filterUnits="userSpaceOnUse" color-interpolation-filters="sRGB">
<feFlood flood-opacity="0" result="BackgroundImageFix"/>
<feColorMatrix in="SourceAlpha" type="matrix" values="0 0 0 0 0 0 0 0 0 0 0 0 0 0 0 0 0 0 127 0" result="hardAlpha"/>
<feMorphology radius="3" operator="erode" in="SourceAlpha" result="effect1_dropShadow_198_2"/>
<feOffset/>
<feGaussianBlur stdDeviation="5.5"/>
<feComposite in2="hardAlpha" operator="out"/>
<feColorMatrix type="matrix" values="0 0 0 0 0 0 0 0 0 0 0 0 0 0 0 0 0 0 0.25 0"/>
<feBlend mode="normal" in2="BackgroundImageFix" result="effect1_dropShadow_198_2"/>
<feBlend mode="normal" in="SourceGraphic" in2="effect1_dropShadow_198_2" result="shape"/>
</filter>
<filter id="filter8_d_198_2" x="194" y="351" width="87" height="87" filterUnits="userSpaceOnUse" color-interpolation-filters="sRGB">
<feFlood flood-opacity="0" result="BackgroundImageFix"/>
<feColorMatrix in="SourceAlpha" type="matrix" values="0 0 0 0 0 0 0 0 0 0 0 0 0 0 0 0 0 0 127 0" result="hardAlpha"/>
<feMorphology radius="3" operator="erode" in="SourceAlpha" result="effect1_dropShadow_198_2"/>
<feOffset/>
<feGaussianBlur stdDeviation="5.5"/>
<feComposite in2="hardAlpha" operator="out"/>
<feColorMatrix type="matrix" values="0 0 0 0 0 0 0 0 0 0 0 0 0 0 0 0 0 0 0.25 0"/>
<feBlend mode="normal" in2="BackgroundImageFix" result="effect1_dropShadow_198_2"/>
<feBlend mode="normal" in="SourceGraphic" in2="effect1_dropShadow_198_2" result="shape"/>
</filter>
<filter id="filter9_d_198_2" x="1487" y="855" width="87" height="87" filterUnits="userSpaceOnUse" color-interpolation-filters="sRGB">
<feFlood flood-opacity="0" result="BackgroundImageFix"/>
<feColorMatrix in="SourceAlpha" type="matrix" values="0 0 0 0 0 0 0 0 0 0 0 0 0 0 0 0 0 0 127 0" result="hardAlpha"/>
<feMorphology radius="3" operator="erode" in="SourceAlpha" result="effect1_dropShadow_198_2"/>
<feOffset/>
<feGaussianBlur stdDeviation="5.5"/>
<feComposite in2="hardAlpha" operator="out"/>
<feColorMatrix type="matrix" values="0 0 0 0 0 0 0 0 0 0 0 0 0 0 0 0 0 0 0.25 0"/>
<feBlend mode="normal" in2="BackgroundImageFix" result="effect1_dropShadow_198_2"/>
<feBlend mode="normal" in="SourceGraphic" in2="effect1_dropShadow_198_2" result="shape"/>
</filter>
<filter id="filter10_d_198_2" x="184" y="855" width="87" height="87" filterUnits="userSpaceOnUse" color-interpolation-filters="sRGB">
<feFlood flood-opacity="0" result="BackgroundImageFix"/>
<feColorMatrix in="SourceAlpha" type="matrix" values="0 0 0 0 0 0 0 0 0 0 0 0 0 0 0 0 0 0 127 0" result="hardAlpha"/>
<feMorphology radius="3" operator="erode" in="SourceAlpha" result="effect1_dropShadow_198_2"/>
<feOffset/>
<feGaussianBlur stdDeviation="5.5"/>
<feComposite in2="hardAlpha" operator="out"/>
<feColorMatrix type="matrix" values="0 0 0 0 0 0 0 0 0 0 0 0 0 0 0 0 0 0 0.25 0"/>
<feBlend mode="normal" in2="BackgroundImageFix" result="effect1_dropShadow_198_2"/>
<feBlend mode="normal" in="SourceGraphic" in2="effect1_dropShadow_198_2" result="shape"/>
</filter>
<filter id="filter11_d_198_2" x="846" y="1197" width="87" height="87" filterUnits="userSpaceOnUse" color-interpolation-filters="sRGB">
<feFlood flood-opacity="0" result="BackgroundImageFix"/>
<feColorMatrix in="SourceAlpha" type="matrix" values="0 0 0 0 0 0 0 0 0 0 0 0 0 0 0 0 0 0 127 0" result="hardAlpha"/>
<feMorphology radius="3" operator="erode" in="SourceAlpha" result="effect1_dropShadow_198_2"/>
<feOffset/>
<feGaussianBlur stdDeviation="5.5"/>
<feComposite in2="hardAlpha" operator="out"/>
<feColorMatrix type="matrix" values="0 0 0 0 0 0 0 0 0 0 0 0 0 0 0 0 0 0 0.25 0"/>
<feBlend mode="normal" in2="BackgroundImageFix" result="effect1_dropShadow_198_2"/>
<feBlend mode="normal" in="SourceGraphic" in2="effect1_dropShadow_198_2" result="shape"/>
</filter>
</defs>
</svg>
